<svg width="112" height="19" viewBox="0 0 112 19" fill="none" xmlns="http://www.w3.org/2000/svg">
<path fill-rule="evenodd" clip-rule="evenodd" d="M4.52605 17.8153C3.58607 18.4838 2.36107 17.5396 2.73689 16.455L4.51344 11.3212L0.490347 8.25491C-0.407598 7.57053 0.0674382 6.12187 1.19996 6.12187H6.21937L7.72603 1.27314C8.07075 0.164162 9.62786 0.164162 9.97258 1.27314L11.4792 6.12187H16.4987C17.6118 6.12187 18.0986 7.53185 17.2377 8.23221L13.4374 11.3212L14.9794 16.5693C15.2955 17.6472 14.0798 18.5317 13.165 17.87L8.84342 14.744L4.52605 17.8153Z" fill="white"/>
<path fill-rule="evenodd" clip-rule="evenodd" d="M28.0676 17.8153C27.1276 18.4838 25.9026 17.5396 26.2784 16.455L28.0549 11.3212L24.0319 8.25491C23.1339 7.57053 23.6089 6.12187 24.7415 6.12187H29.7609L31.2675 1.27314C31.6123 0.164162 33.1694 0.164162 33.5141 1.27314L35.0207 6.12187H40.0402C41.1533 6.12187 41.6401 7.53185 40.7792 8.23221L36.9789 11.3212L38.5209 16.5693C38.837 17.6472 37.6213 18.5317 36.7065 17.87L32.3849 14.744L28.0676 17.8153Z" fill="white"/>
<path fill-rule="evenodd" clip-rule="evenodd" d="M51.6095 17.8153C50.6696 18.4838 49.4446 17.5396 49.8204 16.455L51.5969 11.3212L47.5738 8.25491C46.6759 7.57053 47.1509 6.12187 48.2835 6.12187H53.3029L54.8095 1.27314C55.1542 0.164162 56.7114 0.164162 57.0561 1.27314L58.5627 6.12187H63.5821C64.6953 6.12187 65.1821 7.53185 64.3212 8.23221L60.5209 11.3212L62.0629 16.5693C62.379 17.6472 61.1632 18.5317 60.2485 17.87L55.9269 14.744L51.6095 17.8153Z" fill="white"/>
<path fill-rule="evenodd" clip-rule="evenodd" d="M75.1511 17.8153C74.2111 18.4838 72.9861 17.5396 73.3619 16.455L75.1384 11.3212L71.1153 8.25491C70.2174 7.57053 70.6924 6.12187 71.825 6.12187H76.8444L78.351 1.27314C78.6958 0.164162 80.2529 0.164162 80.5976 1.27314L82.1042 6.12187H87.1237C88.2368 6.12187 88.7236 7.53185 87.8627 8.23221L84.0624 11.3212L85.6044 16.5693C85.9205 17.6472 84.7048 18.5317 83.79 17.87L79.4684 14.744L75.1511 17.8153Z" fill="white"/>
<path fill-rule="evenodd" clip-rule="evenodd" d="M103.017 1.62542L101.254 7.29896H95.3688C95.3688 7.29896 95.3646 7.31325 95.3713 7.31914L100.072 10.9017L98.0172 16.84C98.013 16.8527 98.0147 16.8543 98.0122 16.8569L103.017 13.2953L108.022 16.9157C108.02 16.9132 108.022 16.9123 108.018 16.8997L106.256 10.9008L110.663 7.31829C110.67 7.31241 110.665 7.29812 110.667 7.29812H104.78L103.017 1.62542ZM98.694 17.8153C97.754 18.4838 96.529 17.5396 96.9049 16.455L98.6814 11.3212L94.6583 8.25491C93.7604 7.57053 94.2354 6.12187 95.3679 6.12187H100.387L101.894 1.27314C102.239 0.164162 103.796 0.164162 104.141 1.27314L105.647 6.12187H110.667C111.78 6.12187 112.267 7.53185 111.406 8.23221L107.605 11.3212L109.147 16.5693C109.463 17.6472 108.248 18.5317 107.333 17.87L103.011 14.744L98.694 17.8153Z" fill="white"/>
</svg>
