<svg width="79" height="81" viewBox="0 0 79 81" fill="none" xmlns="http://www.w3.org/2000/svg">
<path d="M38.1665 30.9762V19.5476H26.738V11.9286H38.1665V0.5H45.7856V11.9286H57.2141V19.5476H45.7856V30.9762H38.1665ZM22.9284 80.5C20.8332 80.5 19.0395 79.754 17.5475 78.2619C16.0554 76.7698 15.3094 74.9762 15.3094 72.881C15.3094 70.7857 16.0554 68.9921 17.5475 67.5C19.0395 66.0079 20.8332 65.2619 22.9284 65.2619C25.0237 65.2619 26.8173 66.0079 28.3094 67.5C29.8014 68.9921 30.5475 70.7857 30.5475 72.881C30.5475 74.9762 29.8014 76.7698 28.3094 78.2619C26.8173 79.754 25.0237 80.5 22.9284 80.5ZM61.0237 80.5C58.9284 80.5 57.1348 79.754 55.6427 78.2619C54.1507 76.7698 53.4046 74.9762 53.4046 72.881C53.4046 70.7857 54.1507 68.9921 55.6427 67.5C57.1348 66.0079 58.9284 65.2619 61.0237 65.2619C63.1189 65.2619 64.9126 66.0079 66.4046 67.5C67.8967 68.9921 68.6427 70.7857 68.6427 72.881C68.6427 74.9762 67.8967 76.7698 66.4046 78.2619C64.9126 79.754 63.1189 80.5 61.0237 80.5ZM0.0712891 11.9286V4.30952H12.5475L28.738 38.5952H55.4046L70.2618 11.9286H78.9284L62.1665 42.2143C61.4681 43.4841 60.5316 44.4683 59.357 45.1667C58.1824 45.8651 56.8967 46.2143 55.4999 46.2143H27.1189L22.9284 53.8333H68.6427V61.4524H22.9284C20.0713 61.4524 17.8967 60.2143 16.4046 57.7381C14.9126 55.2619 14.8649 52.754 16.2618 50.2143L21.4046 40.881L7.69034 11.9286H0.0712891Z" fill="#1C1B1F"/>
</svg>
