<svg width="23" height="23" viewBox="0 0 23 23" fill="none" xmlns="http://www.w3.org/2000/svg">
<rect x="0.442383" width="22.5" height="22.5" rx="3" fill="#EEF6F5"/>
<path d="M17.6588 7C17.9888 7 18.2557 7.26689 18.2557 7.59691V14.8411C18.2557 14.9994 18.1928 15.1513 18.0809 15.2632C17.969 15.3752 17.8171 15.438 17.6588 15.438H5.7268C5.56849 15.438 5.41666 15.3752 5.30471 15.2632C5.19277 15.1513 5.12988 14.9994 5.12988 14.8411V7.59691C5.12988 7.26689 5.39678 7 5.7268 7H17.6588ZM15.9712 14.5005H17.3182V13.1529C16.9939 13.237 16.698 13.4063 16.4611 13.6432C16.2243 13.8802 16.0551 14.1761 15.9712 14.5005ZM15.013 7.93756H8.37259C8.27498 8.51345 8.00066 9.04472 7.58763 9.45775C7.17461 9.87077 6.64334 10.1451 6.06744 10.2427V12.1953C6.64322 12.2931 7.17435 12.5674 7.58726 12.9805C8.00016 13.3935 8.27439 13.9247 8.37197 14.5005H15.0124C15.11 13.9245 15.3845 13.3932 15.7976 12.9801C16.2108 12.5671 16.7422 12.2928 17.3182 12.1953V10.2427C16.7424 10.1451 16.2112 9.8709 15.7981 9.458C15.3851 9.0451 15.1107 8.51334 15.013 7.93756ZM6.06807 13.1535L6.06744 14.5005H7.41441C7.33043 14.1763 7.16133 13.8805 6.92461 13.6437C6.6879 13.4069 6.39217 13.2376 6.06807 13.1535ZM7.41441 7.93756H6.06744V9.28452C6.39159 9.20055 6.68739 9.03145 6.92421 8.79473C7.16104 8.55801 7.33028 8.26167 7.41441 7.93756ZM17.3182 7.93756L15.9712 7.93819C16.0552 8.26241 16.2244 8.55826 16.4613 8.79509C16.6981 9.03192 16.9939 9.20112 17.3182 9.28515V7.93756Z" fill="#E33745"/>
<path d="M11.6926 8.90649C12.762 8.90649 13.5677 9.98031 13.5677 11.2504C13.5677 12.5205 12.762 13.5943 11.6926 13.5943C10.6231 13.5943 9.81745 12.5205 9.81745 11.2504C9.81745 9.98031 10.6231 8.90649 11.6926 8.90649ZM11.6926 9.84405C11.2088 9.84405 10.755 10.4491 10.755 11.2504C10.755 12.0517 11.2088 12.6567 11.6926 12.6567C12.1764 12.6567 12.6301 12.0517 12.6301 11.2504C12.6301 10.4491 12.1764 9.84405 11.6926 9.84405ZM8.41111 10.7816C8.52826 10.7814 8.64124 10.8251 8.7278 10.904C8.81437 10.9829 8.86825 11.0914 8.87884 11.208C8.88942 11.3247 8.85594 11.4411 8.78499 11.5343C8.71404 11.6275 8.61076 11.6908 8.49549 11.7117L8.41111 11.7192H7.47355C7.35641 11.7194 7.24343 11.6757 7.15686 11.5968C7.07029 11.5179 7.01641 11.4094 7.00582 11.2928C6.99524 11.1761 7.02872 11.0597 7.09967 10.9665C7.17062 10.8733 7.2739 10.81 7.38917 10.7891L7.47355 10.7816H8.41111ZM15.9116 10.7816C16.0287 10.7814 16.1417 10.8251 16.2283 10.904C16.3149 10.9829 16.3687 11.0914 16.3793 11.208C16.3899 11.3247 16.3564 11.4411 16.2855 11.5343C16.2145 11.6275 16.1112 11.6908 15.996 11.7117L15.9116 11.7192H14.974C14.8569 11.7194 14.7439 11.6757 14.6573 11.5968C14.5708 11.5179 14.5169 11.4094 14.5063 11.2928C14.4957 11.1761 14.5292 11.0597 14.6002 10.9665C14.6711 10.8733 14.7744 10.81 14.8897 10.7891L14.974 10.7816H15.9116Z" fill="#E33745"/>
</svg>
