<svg width="19" height="14" viewBox="0 0 19 14" fill="none" xmlns="http://www.w3.org/2000/svg">
<path d="M0.0966797 13.6155V11.9693C0.0966797 11.5051 0.216846 11.106 0.45718 10.772C0.697513 10.4382 1.02051 10.1714 1.42618 9.97152C2.29368 9.55852 3.15493 9.22927 4.00993 8.98377C4.8651 8.73827 5.89401 8.61552 7.09668 8.61552C8.29918 8.61552 9.32801 8.73827 10.1832 8.98377C11.0383 9.22927 11.8996 9.55852 12.7669 9.97152C13.1726 10.1714 13.4956 10.4382 13.7359 10.772C13.9764 11.106 14.0967 11.5051 14.0967 11.9693V13.6155H0.0966797ZM16.0967 13.6155V11.923C16.0967 11.3435 15.9793 10.7965 15.7447 10.282C15.5102 9.76752 15.1775 9.32611 14.7467 8.95777C15.2377 9.05777 15.7108 9.19652 16.1659 9.37402C16.6209 9.55169 17.0709 9.75136 17.5159 9.97302C17.9493 10.191 18.289 10.4699 18.5352 10.8098C18.7812 11.1498 18.9042 11.5209 18.9042 11.923V13.6155H16.0967ZM7.09668 6.38452C6.27168 6.38452 5.56543 6.09077 4.97793 5.50327C4.39043 4.91577 4.09668 4.20952 4.09668 3.38452C4.09668 2.55952 4.39043 1.85327 4.97793 1.26577C5.56543 0.678271 6.27168 0.384521 7.09668 0.384521C7.92168 0.384521 8.62793 0.678271 9.21543 1.26577C9.80293 1.85327 10.0967 2.55952 10.0967 3.38452C10.0967 4.20952 9.80293 4.91577 9.21543 5.50327C8.62793 6.09077 7.92168 6.38452 7.09668 6.38452ZM14.3659 3.38452C14.3659 4.20952 14.0722 4.91577 13.4847 5.50327C12.8972 6.09077 12.1909 6.38452 11.3659 6.38452C11.3236 6.38452 11.2697 6.37977 11.2042 6.37027C11.1388 6.3606 11.085 6.35002 11.0427 6.33852C11.3815 5.92352 11.6418 5.46319 11.8237 4.95752C12.0057 4.45185 12.0967 3.92677 12.0967 3.38227C12.0967 2.83777 12.0014 2.31744 11.8109 1.82127C11.6206 1.3251 11.3645 0.861604 11.0427 0.430771C11.0965 0.411604 11.1503 0.399104 11.2042 0.393271C11.258 0.387438 11.3119 0.384521 11.3659 0.384521C12.1909 0.384521 12.8972 0.678271 13.4847 1.26577C14.0722 1.85327 14.3659 2.55952 14.3659 3.38452ZM1.09668 12.6155H13.0967V11.9693C13.0967 11.7346 13.038 11.5294 12.9207 11.3538C12.8033 11.1783 12.5928 11.0104 12.2889 10.85C11.5428 10.4514 10.7562 10.1459 9.92918 9.93377C9.10235 9.72161 8.15818 9.61552 7.09668 9.61552C6.03501 9.61552 5.09076 9.72161 4.26393 9.93377C3.43693 10.1459 2.65035 10.4514 1.90418 10.85C1.60035 11.0104 1.38976 11.1783 1.27243 11.3538C1.15526 11.5294 1.09668 11.7346 1.09668 11.9693V12.6155ZM7.09668 5.38452C7.64668 5.38452 8.11751 5.18869 8.50918 4.79702C8.90085 4.40535 9.09668 3.93452 9.09668 3.38452C9.09668 2.83452 8.90085 2.36369 8.50918 1.97202C8.11751 1.58035 7.64668 1.38452 7.09668 1.38452C6.54668 1.38452 6.07585 1.58035 5.68418 1.97202C5.29251 2.36369 5.09668 2.83452 5.09668 3.38452C5.09668 3.93452 5.29251 4.40535 5.68418 4.79702C6.07585 5.18869 6.54668 5.38452 7.09668 5.38452Z" fill="#535969"/>
</svg>
