<svg width="13" height="13" viewBox="0 0 13 13" fill="none" xmlns="http://www.w3.org/2000/svg">
<path fill-rule="evenodd" clip-rule="evenodd" d="M11.8151 3.98557V2.11045C11.8151 2.01099 11.7756 1.9156 11.7053 1.84527C11.635 1.77494 11.5396 1.73542 11.4401 1.73542H9.56499V0.985376C9.56499 0.885913 9.52548 0.790524 9.45514 0.720194C9.38481 0.649863 9.28942 0.610352 9.18996 0.610352C9.0905 0.610352 8.99511 0.649863 8.92478 0.720194C8.85445 0.790524 8.81494 0.885913 8.81494 0.985376V1.73542H4.31465V0.985376C4.31465 0.885913 4.27514 0.790524 4.2048 0.720194C4.13447 0.649863 4.03909 0.610352 3.93962 0.610352C3.84016 0.610352 3.74477 0.649863 3.67444 0.720194C3.60411 0.790524 3.5646 0.885913 3.5646 0.985376V1.73542H1.68948C1.59001 1.73542 1.49463 1.77494 1.4243 1.84527C1.35396 1.9156 1.31445 2.01099 1.31445 2.11045V3.98557H11.8151Z" fill="white"/>
<path fill-rule="evenodd" clip-rule="evenodd" d="M9.18996 7.48529H8.43991C8.34045 7.48529 8.24506 7.44577 8.17473 7.37544C8.1044 7.30511 8.06489 7.20972 8.06489 7.11026C8.06489 7.0108 8.1044 6.91541 8.17473 6.84508C8.24506 6.77475 8.34045 6.73524 8.43991 6.73524H9.18996C9.28942 6.73524 9.38481 6.77475 9.45514 6.84508C9.52548 6.91541 9.56499 7.0108 9.56499 7.11026C9.56499 7.20972 9.52548 7.30511 9.45514 7.37544C9.38481 7.44577 9.28942 7.48529 9.18996 7.48529ZM9.18996 9.2354H8.43991C8.34045 9.2354 8.24506 9.19589 8.17473 9.12556C8.1044 9.05523 8.06489 8.95984 8.06489 8.86037C8.06489 8.76091 8.1044 8.66552 8.17473 8.59519C8.24506 8.52486 8.34045 8.48535 8.43991 8.48535H9.18996C9.28942 8.48535 9.38481 8.52486 9.45514 8.59519C9.52548 8.66552 9.56499 8.76091 9.56499 8.86037C9.56499 8.95984 9.52548 9.05523 9.45514 9.12556C9.38481 9.19589 9.28942 9.2354 9.18996 9.2354ZM6.93982 7.48529H6.18977C6.09031 7.48529 5.99492 7.44577 5.92459 7.37544C5.85426 7.30511 5.81474 7.20972 5.81474 7.11026C5.81474 7.0108 5.85426 6.91541 5.92459 6.84508C5.99492 6.77475 6.09031 6.73524 6.18977 6.73524H6.93982C7.03928 6.73524 7.13467 6.77475 7.205 6.84508C7.27533 6.91541 7.31484 7.0108 7.31484 7.11026C7.31484 7.20972 7.27533 7.30511 7.205 7.37544C7.13467 7.44577 7.03928 7.48529 6.93982 7.48529ZM6.93982 9.2354H6.18977C6.09031 9.2354 5.99492 9.19589 5.92459 9.12556C5.85426 9.05523 5.81474 8.95984 5.81474 8.86037C5.81474 8.76091 5.85426 8.66552 5.92459 8.59519C5.99492 8.52486 6.09031 8.48535 6.18977 8.48535H6.93982C7.03928 8.48535 7.13467 8.52486 7.205 8.59519C7.27533 8.66552 7.31484 8.76091 7.31484 8.86037C7.31484 8.95984 7.27533 9.05523 7.205 9.12556C7.13467 9.19589 7.03928 9.2354 6.93982 9.2354ZM4.68967 7.48529H3.93962C3.84016 7.48529 3.74477 7.44577 3.67444 7.37544C3.60411 7.30511 3.5646 7.20972 3.5646 7.11026C3.5646 7.0108 3.60411 6.91541 3.67444 6.84508C3.74477 6.77475 3.84016 6.73524 3.93962 6.73524H4.68967C4.78913 6.73524 4.88452 6.77475 4.95485 6.84508C5.02518 6.91541 5.0647 7.0108 5.0647 7.11026C5.0647 7.20972 5.02518 7.30511 4.95485 7.37544C4.88452 7.44577 4.78913 7.48529 4.68967 7.48529ZM4.68967 9.2354H3.93962C3.84016 9.2354 3.74477 9.19589 3.67444 9.12556C3.60411 9.05523 3.5646 8.95984 3.5646 8.86037C3.5646 8.76091 3.60411 8.66552 3.67444 8.59519C3.74477 8.52486 3.84016 8.48535 3.93962 8.48535H4.68967C4.78913 8.48535 4.88452 8.52486 4.95485 8.59519C5.02518 8.66552 5.0647 8.76091 5.0647 8.86037C5.0647 8.95984 5.02518 9.05523 4.95485 9.12556C4.88452 9.19589 4.78913 9.2354 4.68967 9.2354ZM1.31445 4.73511V11.1105C1.31445 11.3175 1.48246 11.4855 1.68948 11.4855H11.4401C11.5396 11.4855 11.635 11.446 11.7053 11.3757C11.7756 11.3054 11.8151 11.21 11.8151 11.1105V4.73511H1.31445Z" fill="white"/>
</svg>
