<svg width="11" height="10" viewBox="0 0 11 10" fill="none" xmlns="http://www.w3.org/2000/svg">
<path d="M1 10C0.725 10 0.489583 9.90208 0.29375 9.70625C0.0979167 9.51042 0 9.275 0 9V3C0 2.725 0.0979167 2.48958 0.29375 2.29375C0.489583 2.09792 0.725 2 1 2H2.575L3.5 1H6.5V2H3.9375L3.025 3H1V9H9V4.5H10V9C10 9.275 9.90208 9.51042 9.70625 9.70625C9.51042 9.90208 9.275 10 9 10H1ZM9 3V2H8V1H9V0H10V1H11V2H10V3H9ZM5 8.25C5.625 8.25 6.15625 8.03125 6.59375 7.59375C7.03125 7.15625 7.25 6.625 7.25 6C7.25 5.375 7.03125 4.84375 6.59375 4.40625C6.15625 3.96875 5.625 3.75 5 3.75C4.375 3.75 3.84375 3.96875 3.40625 4.40625C2.96875 4.84375 2.75 5.375 2.75 6C2.75 6.625 2.96875 7.15625 3.40625 7.59375C3.84375 8.03125 4.375 8.25 5 8.25ZM5 7.25C4.65 7.25 4.35417 7.12917 4.1125 6.8875C3.87083 6.64583 3.75 6.35 3.75 6C3.75 5.65 3.87083 5.35417 4.1125 5.1125C4.35417 4.87083 4.65 4.75 5 4.75C5.35 4.75 5.64583 4.87083 5.8875 5.1125C6.12917 5.35417 6.25 5.65 6.25 6C6.25 6.35 6.12917 6.64583 5.8875 6.8875C5.64583 7.12917 5.35 7.25 5 7.25Z" fill="white"/>
</svg>
