<svg width="12" height="12" viewBox="0 0 12 12" fill="none" xmlns="http://www.w3.org/2000/svg">
<path d="M7.64078 7.47075C7.70703 7.54184 7.74309 7.63587 7.74138 7.73303C7.73966 7.83019 7.70031 7.92288 7.63159 7.99159C7.56288 8.06031 7.47019 8.09966 7.37303 8.10138C7.27587 8.10309 7.18184 8.06703 7.11075 8.00078L5.61065 6.50069C5.5403 6.43042 5.50073 6.3351 5.50065 6.23567V3.23548C5.50065 3.13601 5.54016 3.04062 5.61049 2.97029C5.68082 2.89996 5.77621 2.86045 5.87567 2.86045C5.97513 2.86045 6.07052 2.89996 6.14085 2.97029C6.21118 3.04062 6.25069 3.13601 6.25069 3.23548V6.08066L7.64078 7.47075Z" fill="white"/>
<path fill-rule="evenodd" clip-rule="evenodd" d="M5.87632 1.73613C3.39466 1.73613 1.37603 3.75476 1.37603 6.23642C1.37603 8.71808 3.39466 10.7367 5.87632 10.7367C8.35798 10.7367 10.3766 8.71808 10.3766 6.23642C10.3766 3.75476 8.35798 1.73613 5.87632 1.73613ZM5.87632 11.4868C2.98113 11.4868 0.625977 9.13161 0.625977 6.23642C0.625977 3.34124 2.98113 0.986084 5.87632 0.986084C8.7715 0.986084 11.1267 3.34124 11.1267 6.23642C11.1267 9.13161 8.7715 11.4868 5.87632 11.4868Z" fill="white"/>
</svg>
