<svg width="21" height="20" viewBox="0 0 21 20" fill="none" xmlns="http://www.w3.org/2000/svg">
<path d="M9.57373 6.39488C9.57373 6.28555 9.61716 6.18071 9.69447 6.1034C9.77177 6.0261 9.87662 5.98267 9.98595 5.98267H10.8104C10.9197 5.98267 11.0245 6.0261 11.1019 6.1034C11.1792 6.18071 11.2226 6.28555 11.2226 6.39488V9.28038H12.4592C12.5686 9.28038 12.6734 9.32381 12.7507 9.40112C12.828 9.47842 12.8714 9.58327 12.8714 9.6926V10.517C12.8714 10.6264 12.828 10.7312 12.7507 10.8085C12.6734 10.8858 12.5686 10.9292 12.4592 10.9292H9.98595C9.87662 10.9292 9.77177 10.8858 9.69447 10.8085C9.61716 10.7312 9.57373 10.6264 9.57373 10.517V6.39488Z" fill="#2D333F"/>
<path d="M17.8178 10.1047C17.8178 11.0791 17.6258 12.0439 17.253 12.9441C16.8801 13.8444 16.3335 14.6623 15.6445 15.3513C14.9555 16.0403 14.1376 16.5869 13.2374 16.9597C12.3371 17.3326 11.3723 17.5245 10.3979 17.5245C9.4235 17.5245 8.45865 17.3326 7.55843 16.9597C6.65821 16.5869 5.84025 16.0403 5.15126 15.3513C4.46226 14.6623 3.91571 13.8444 3.54283 12.9441C3.16995 12.0439 2.97803 11.0791 2.97803 10.1047C2.97803 8.13681 3.75976 6.24954 5.15126 4.85804C6.54275 3.46655 8.43002 2.68481 10.3979 2.68481C12.3658 2.68481 14.253 3.46655 15.6445 4.85804C17.036 6.24954 17.8178 8.13681 17.8178 10.1047ZM16.1689 10.1047C16.1689 9.34682 16.0196 8.59638 15.7296 7.89621C15.4396 7.19604 15.0145 6.55985 14.4786 6.02396C13.9427 5.48808 13.3065 5.06299 12.6064 4.77297C11.9062 4.48295 11.1558 4.33367 10.3979 4.33367C9.64004 4.33367 8.8896 4.48295 8.18943 4.77297C7.48925 5.06299 6.85306 5.48808 6.31718 6.02396C5.78129 6.55985 5.3562 7.19604 5.06618 7.89621C4.77616 8.59638 4.62689 9.34682 4.62689 10.1047C4.62689 11.6352 5.2349 13.1031 6.31718 14.1854C7.39945 15.2677 8.86733 15.8757 10.3979 15.8757C11.9285 15.8757 13.3963 15.2677 14.4786 14.1854C15.5609 13.1031 16.1689 11.6352 16.1689 10.1047Z" fill="#2D333F"/>
</svg>
