<svg width="15" height="15" viewBox="0 0 15 15" fill="none" xmlns="http://www.w3.org/2000/svg">
<path d="M7.59883 0.644043C3.86045 0.644043 0.830078 3.67441 0.830078 7.41279C0.830078 11.1512 3.86045 14.1815 7.59883 14.1815C11.3372 14.1815 14.3676 11.1512 14.3676 7.41279C14.3601 3.6778 11.3338 0.651489 7.59951 0.644043H7.59883ZM12.4317 4.82713H10.4011C10.2224 3.88424 9.97466 3.05372 9.65179 2.2611L9.6836 2.34977C10.8715 2.84592 11.8232 3.71029 12.4175 4.7987L12.4317 4.82713ZM13.0815 7.41279C13.0802 7.87036 13.0206 8.31304 12.9109 8.73541L12.9191 8.69886H10.5906C10.6306 8.31304 10.6529 7.86562 10.6529 7.41279C10.6529 6.95996 10.6299 6.51255 10.5859 6.07123L10.5906 6.12673H12.9191C13.0206 6.51255 13.0802 6.95523 13.0815 7.41212V7.41279ZM2.11614 7.41279C2.11749 6.95523 2.17706 6.51255 2.28671 6.09018L2.27859 6.12673H4.62058C4.58064 6.51255 4.55831 6.95996 4.55831 7.41279C4.55831 7.86562 4.58132 8.31304 4.62532 8.75436L4.62058 8.69886H2.27859C2.17706 8.31304 2.11749 7.87036 2.11614 7.41347V7.41279ZM5.8931 6.12673H9.30455C9.3472 6.51255 9.37156 6.95996 9.37156 7.41279C9.37156 7.86562 9.3472 8.31304 9.29914 8.75368L9.30388 8.69886H5.89243C5.84978 8.31304 5.82542 7.86562 5.82542 7.41279C5.82542 6.95996 5.84978 6.51255 5.89784 6.0719L5.8931 6.12673ZM8.11325 1.93011C8.52141 2.76131 8.86188 3.72856 9.08525 4.74049L9.10149 4.82713H6.09617C6.33578 3.72856 6.67625 2.76131 7.11825 1.85226L7.0844 1.93011C7.24685 1.93011 7.42284 1.93011 7.59883 1.93011C7.77482 1.93011 7.92373 1.93011 8.11325 1.93011ZM5.54113 2.32269C5.23992 3.03409 4.98271 3.87341 4.81078 4.7432L4.79657 4.82713H2.76594C3.37445 3.71029 4.32614 2.84592 5.47818 2.36331L5.51405 2.34977L5.54113 2.32269ZM2.76594 9.98492H4.79657C4.97391 10.9325 5.22232 11.7678 5.54587 12.5645L5.51405 12.4758C4.32478 11.9763 3.37174 11.1072 2.78016 10.014L2.76594 9.98492ZM7.0844 12.8955C6.67489 12.0602 6.33443 11.0882 6.11173 10.0716L6.09617 9.98492H9.10149C8.86323 11.0882 8.52276 12.0602 8.07941 12.9733L8.11325 12.8955C7.9508 12.8955 7.77482 12.8955 7.59883 12.8955C7.42284 12.8955 7.27393 12.8955 7.0844 12.8955ZM9.65653 12.5029C9.94826 11.7949 10.1967 10.9596 10.3612 10.0946L10.374 10.012H12.4317C11.8212 11.1234 10.8695 11.9831 9.72015 12.4623L9.6836 12.4758L9.65653 12.5029Z" fill="#1C1C1C"/>
</svg>
