<svg width="73" height="72" viewBox="0 0 73 72" fill="none" xmlns="http://www.w3.org/2000/svg">
<path d="M17 71.75H7.25C5.4625 71.75 3.93229 71.1135 2.65938 69.8406C1.38646 68.5677 0.75 67.0375 0.75 65.25V55.5H7.25V65.25H17V71.75ZM56 71.75V65.25H65.75V55.5H72.25V65.25C72.25 67.0375 71.6135 68.5677 70.3406 69.8406C69.0677 71.1135 67.5375 71.75 65.75 71.75H56ZM36.5 57.125C30 57.125 24.1094 55.2021 18.8281 51.3563C13.5469 47.5104 9.6875 42.3917 7.25 36C9.6875 29.6083 13.5469 24.4896 18.8281 20.6438C24.1094 16.7979 30 14.875 36.5 14.875C43 14.875 48.8906 16.7979 54.1719 20.6438C59.4531 24.4896 63.3125 29.6083 65.75 36C63.3125 42.3917 59.4531 47.5104 54.1719 51.3563C48.8906 55.2021 43 57.125 36.5 57.125ZM36.5 50.625C41.2667 50.625 45.6271 49.325 49.5813 46.725C53.5354 44.125 56.5688 40.55 58.6813 36C56.5688 31.45 53.5354 27.875 49.5813 25.275C45.6271 22.675 41.2667 21.375 36.5 21.375C31.7333 21.375 27.3729 22.675 23.4187 25.275C19.4646 27.875 16.4313 31.45 14.3188 36C16.4313 40.55 19.4646 44.125 23.4187 46.725C27.3729 49.325 31.7333 50.625 36.5 50.625ZM36.5 47.375C39.6417 47.375 42.3229 46.2646 44.5438 44.0438C46.7646 41.8229 47.875 39.1417 47.875 36C47.875 32.8583 46.7646 30.1771 44.5438 27.9563C42.3229 25.7354 39.6417 24.625 36.5 24.625C33.3583 24.625 30.6771 25.7354 28.4563 27.9563C26.2354 30.1771 25.125 32.8583 25.125 36C25.125 39.1417 26.2354 41.8229 28.4563 44.0438C30.6771 46.2646 33.3583 47.375 36.5 47.375ZM36.5 40.875C35.1458 40.875 33.9948 40.401 33.0469 39.4531C32.099 38.5052 31.625 37.3542 31.625 36C31.625 34.6458 32.099 33.4948 33.0469 32.5469C33.9948 31.599 35.1458 31.125 36.5 31.125C37.8542 31.125 39.0052 31.599 39.9531 32.5469C40.901 33.4948 41.375 34.6458 41.375 36C41.375 37.3542 40.901 38.5052 39.9531 39.4531C39.0052 40.401 37.8542 40.875 36.5 40.875ZM0.75 16.5V6.75C0.75 4.9625 1.38646 3.43229 2.65938 2.15938C3.93229 0.886458 5.4625 0.25 7.25 0.25H17V6.75H7.25V16.5H0.75ZM65.75 16.5V6.75H56V0.25H65.75C67.5375 0.25 69.0677 0.886458 70.3406 2.15938C71.6135 3.43229 72.25 4.9625 72.25 6.75V16.5H65.75Z" fill="#1C1B1F"/>
</svg>
