<svg width="18" height="19" viewBox="0 0 18 19" fill="none" xmlns="http://www.w3.org/2000/svg">
<path d="M0 19V1C0 0.716667 0.0958333 0.479167 0.2875 0.2875C0.479167 0.0958333 0.716667 0 1 0C1.28333 0 1.52083 0.0958333 1.7125 0.2875C1.90417 0.479167 2 0.716667 2 1V2H16V1C16 0.716667 16.0958 0.479167 16.2875 0.2875C16.4792 0.0958333 16.7167 0 17 0C17.2833 0 17.5208 0.0958333 17.7125 0.2875C17.9042 0.479167 18 0.716667 18 1V19H16V8H2V19H0ZM2 6H16V4H2V6ZM8 19V16H5V14H13V16H10V19H8Z" fill="#7C7C7C"/>
</svg>
