<svg width="12" height="14" viewBox="0 0 12 14" fill="none" xmlns="http://www.w3.org/2000/svg">
<path d="M3.01677 13.1925V7.65082H1.78288C1.45621 7.65082 1.1801 7.53809 0.954544 7.31264C0.728989 7.08718 0.616211 6.81121 0.616211 6.48474C0.616211 6.15827 0.728989 5.88211 0.954544 5.65626C1.1801 5.43041 1.45621 5.31749 1.78288 5.31749H3.01677V4.59941H1.78288C1.45621 4.59941 1.1801 4.48673 0.954544 4.26136C0.728989 4.03591 0.616211 3.75994 0.616211 3.43347C0.616211 3.107 0.728989 2.83084 0.954544 2.60499C1.1801 2.37904 1.45621 2.26607 1.78288 2.26607H3.01677V0.807739H3.60011V2.26607H4.83415C5.16082 2.26607 5.43693 2.3788 5.66248 2.60426C5.88804 2.82972 6.00082 3.10568 6.00082 3.43216C6.00082 3.75863 5.88804 4.03479 5.66248 4.26064C5.43693 4.48648 5.16082 4.59941 4.83415 4.59941H3.60011V5.31749H4.83415C5.16082 5.31749 5.43693 5.43017 5.66248 5.65553C5.88804 5.88099 6.00082 6.15695 6.00082 6.48343C6.00082 6.8099 5.88804 7.08606 5.66248 7.31191C5.43693 7.53785 5.16082 7.65082 4.83415 7.65082H3.60011V13.1925H3.01677ZM1.78288 7.06749H4.83415C4.99418 7.06749 5.13141 7.01027 5.24584 6.89584C5.36027 6.78141 5.41748 6.64418 5.41748 6.48416C5.41748 6.32403 5.36027 6.18675 5.24584 6.07232C5.13141 5.95799 4.99418 5.90082 4.83415 5.90082H1.78288C1.62285 5.90082 1.48562 5.95799 1.37119 6.07232C1.25676 6.18675 1.19954 6.32403 1.19954 6.48416C1.19954 6.64418 1.25676 6.78141 1.37119 6.89584C1.48562 7.01027 1.62285 7.06749 1.78288 7.06749ZM1.78288 4.01607H4.83415C4.99418 4.01607 5.13141 3.95891 5.24584 3.84457C5.36027 3.73014 5.41748 3.59286 5.41748 3.43274C5.41748 3.27271 5.36027 3.13548 5.24584 3.02105C5.13141 2.90662 4.99418 2.84941 4.83415 2.84941H1.78288C1.62285 2.84941 1.48562 2.90662 1.37119 3.02105C1.25676 3.13548 1.19954 3.27271 1.19954 3.43274C1.19954 3.59286 1.25676 3.73014 1.37119 3.84457C1.48562 3.95891 1.62285 4.01607 1.78288 4.01607ZM7.81819 13.1925V12.6092H8.98486V7.85499C8.49194 7.72627 8.07704 7.48151 7.74017 7.12072C7.4033 6.75983 7.23486 6.33074 7.23486 5.83345V0.807739H11.3182V5.83345C11.3182 6.33074 11.1497 6.75983 10.8127 7.12072C10.4759 7.48151 10.061 7.72627 9.56819 7.85499V12.6092H10.7349V13.1925H7.81819ZM9.27652 7.29178C9.68709 7.29178 10.0328 7.15139 10.3135 6.87061C10.5944 6.58974 10.7349 6.24402 10.7349 5.83345V4.37511H7.81819V5.83345C7.81819 6.24402 7.95858 6.58974 8.23936 6.87061C8.52013 7.15139 8.86586 7.29178 9.27652 7.29178ZM7.81819 3.79178H10.7349V1.39107H7.81819V3.79178Z" fill="#2A2D32"/>
</svg>
