<svg width="11" height="12" viewBox="0 0 11 12" fill="none" xmlns="http://www.w3.org/2000/svg">
<path d="M0.333008 11.25V10.6667H1.30892V8.63171C0.998591 8.55996 0.758355 8.4132 0.588216 8.19144C0.418077 7.96967 0.333008 7.71033 0.333008 7.41342V3.375H2.86832V7.41342C2.86832 7.69536 2.78136 7.95096 2.60742 8.18021C2.43359 8.40946 2.1952 8.55996 1.89226 8.63171V10.6667H2.86832V11.25H0.333008ZM0.916341 5.96631H2.28499V3.95833H0.916341V5.96631ZM1.60059 8.09781C1.78833 8.09781 1.94933 8.03068 2.08359 7.89642C2.21786 7.76215 2.28499 7.60115 2.28499 7.41342V6.54965H0.916341V7.41342C0.916341 7.60115 0.983473 7.76215 1.11774 7.89642C1.252 8.03068 1.41295 8.09781 1.60059 8.09781ZM5.53809 11.25C5.37767 11.25 5.24035 11.1929 5.12611 11.0786C5.01188 10.9644 4.95476 10.8271 4.95476 10.6667V5.01737C4.95476 4.89225 4.99404 4.7804 5.07259 4.68181C5.15115 4.58313 5.24725 4.5125 5.3609 4.46992L5.91507 4.25452C6.17086 4.16099 6.37017 4.03815 6.51299 3.886C6.65581 3.73375 6.72722 3.48491 6.72722 3.13948V1.20077C6.72722 1.07156 6.77024 0.964132 6.85628 0.878479C6.94222 0.792826 7.04878 0.75 7.17595 0.75H8.02849C8.15565 0.75 8.26226 0.79302 8.3483 0.879062C8.43425 0.965007 8.47722 1.07156 8.47722 1.19873V3.13948C8.47722 3.48491 8.55052 3.73375 8.69713 3.886C8.84374 4.03815 9.0449 4.16099 9.30059 4.25452L9.86599 4.46992C9.97964 4.51308 10.072 4.58391 10.1431 4.6824C10.2141 4.78079 10.2497 4.89244 10.2497 5.01737V10.6667C10.2497 10.8271 10.1926 10.9644 10.0783 11.0786C9.96409 11.1929 9.82676 11.25 9.66634 11.25H5.53809ZM7.31055 1.97281H7.89388V1.33333H7.31055V1.97281ZM5.53809 6.34781H9.66634V5.01737L9.10095 4.80198C8.7315 4.66587 8.43799 4.47628 8.2204 4.23323C8.00272 3.99017 7.89388 3.62783 7.89388 3.14619V2.55615H7.31055V3.14619C7.31055 3.62783 7.20176 3.99017 6.98418 4.23323C6.76649 4.47628 6.47293 4.66587 6.10349 4.80198L5.53809 5.01737V6.34781ZM5.53809 10.6667H9.66634V9.09619H5.53809V10.6667ZM5.53809 8.51285H9.66634V6.93115H5.53809V8.51285Z" fill="#1C1B1F"/>
</svg>
