<svg width="12" height="12" viewBox="0 0 12 12" fill="none" xmlns="http://www.w3.org/2000/svg">
<path fill-rule="evenodd" clip-rule="evenodd" d="M6.00098 1.5C3.51948 1.5 1.50098 3.5185 1.50098 6C1.50098 8.4815 3.51948 10.5 6.00098 10.5C8.48248 10.5 10.501 8.4815 10.501 6C10.501 3.5185 8.48248 1.5 6.00098 1.5ZM6.00098 11.25C3.10598 11.25 0.750977 8.895 0.750977 6C0.750977 3.105 3.10598 0.75 6.00098 0.75C8.89598 0.75 11.251 3.105 11.251 6C11.251 8.895 8.89598 11.25 6.00098 11.25Z" fill="#2A2D32"/>
<path fill-rule="evenodd" clip-rule="evenodd" d="M7.25141 7C7.45032 7 7.64109 7.07902 7.78174 7.21967C7.92239 7.36032 8.00141 7.55109 8.00141 7.75C8.00141 7.94891 7.92239 8.13968 7.78174 8.28033C7.64109 8.42098 7.45032 8.5 7.25141 8.5C7.0525 8.5 6.86173 8.42098 6.72108 8.28033C6.58043 8.13968 6.50141 7.94891 6.50141 7.75C6.50141 7.55109 6.58043 7.36032 6.72108 7.21967C6.86173 7.07902 7.0525 7 7.25141 7ZM8.38791 3.6135C8.45814 3.68381 8.49758 3.77912 8.49758 3.8785C8.49758 3.97788 8.45814 4.07319 8.38791 4.1435L4.14541 8.3865C4.07472 8.45484 3.98001 8.49269 3.88169 8.49188C3.78336 8.49107 3.68929 8.45168 3.61973 8.38218C3.55016 8.31269 3.51068 8.21865 3.50978 8.12033C3.50888 8.022 3.54663 7.92726 3.61491 7.8565L7.85741 3.6135C7.89224 3.57865 7.93359 3.55101 7.9791 3.53215C8.02461 3.51329 8.0734 3.50358 8.12266 3.50358C8.17193 3.50358 8.22071 3.51329 8.26622 3.53215C8.31174 3.55101 8.35309 3.57865 8.38791 3.6135ZM4.75141 3.5C4.95032 3.5 5.14109 3.57902 5.28174 3.71967C5.42239 3.86032 5.50141 4.05109 5.50141 4.25C5.50141 4.44891 5.42239 4.63968 5.28174 4.78033C5.14109 4.92098 4.95032 5 4.75141 5C4.5525 5 4.36173 4.92098 4.22108 4.78033C4.08043 4.63968 4.00141 4.44891 4.00141 4.25C4.00141 4.05109 4.08043 3.86032 4.22108 3.71967C4.36173 3.57902 4.5525 3.5 4.75141 3.5Z" fill="#2A2D32"/>
</svg>
