<svg width="12" height="11" viewBox="0 0 12 11" fill="none" xmlns="http://www.w3.org/2000/svg">
<path fill-rule="evenodd" clip-rule="evenodd" d="M3.75 6.25C3.75 6.947 3.27 7.529 2.625 7.697V10.375C2.625 10.4745 2.58549 10.5698 2.51517 10.6402C2.44484 10.7105 2.34946 10.75 2.25 10.75C2.15054 10.75 2.05516 10.7105 1.98483 10.6402C1.91451 10.5698 1.875 10.4745 1.875 10.375V7.697C1.55382 7.61425 1.26915 7.42732 1.06558 7.16547C0.862003 6.90363 0.751017 6.58167 0.75 6.25C0.75 5.553 1.23 4.971 1.875 4.803V0.625C1.875 0.525544 1.91451 0.430161 1.98483 0.359835C2.05516 0.289509 2.15054 0.25 2.25 0.25C2.34946 0.25 2.44484 0.289509 2.51517 0.359835C2.58549 0.430161 2.625 0.525544 2.625 0.625V4.803C3.27 4.971 3.75 5.553 3.75 6.25ZM7.5 2.5C7.5 3.197 7.02 3.779 6.375 3.947V10.375C6.375 10.4745 6.33549 10.5698 6.26516 10.6402C6.19484 10.7105 6.09946 10.75 6 10.75C5.90054 10.75 5.80516 10.7105 5.73484 10.6402C5.66451 10.5698 5.625 10.4745 5.625 10.375V3.947C5.30382 3.86425 5.01915 3.67732 4.81558 3.41547C4.612 3.15363 4.50102 2.83167 4.5 2.5C4.5 1.803 4.98 1.221 5.625 1.053V0.625C5.625 0.525544 5.66451 0.430161 5.73484 0.359835C5.80516 0.289509 5.90054 0.25 6 0.25C6.09946 0.25 6.19484 0.289509 6.26516 0.359835C6.33549 0.430161 6.375 0.525544 6.375 0.625V1.053C7.02 1.221 7.5 1.803 7.5 2.5ZM11.25 7C11.25 7.697 10.77 8.279 10.125 8.447V10.375C10.125 10.4745 10.0855 10.5698 10.0152 10.6402C9.94484 10.7105 9.84946 10.75 9.75 10.75C9.65054 10.75 9.55516 10.7105 9.48483 10.6402C9.41451 10.5698 9.375 10.4745 9.375 10.375V8.447C9.05382 8.36425 8.76915 8.17732 8.56558 7.91547C8.362 7.65363 8.25102 7.33167 8.25 7C8.25 6.303 8.73 5.721 9.375 5.553V0.625C9.375 0.525544 9.41451 0.430161 9.48483 0.359835C9.55516 0.289509 9.65054 0.25 9.75 0.25C9.84946 0.25 9.94484 0.289509 10.0152 0.359835C10.0855 0.430161 10.125 0.525544 10.125 0.625V5.553C10.77 5.721 11.25 6.303 11.25 7Z" fill="white"/>
</svg>
