<svg width="12" height="10" viewBox="0 0 12 10" fill="none" xmlns="http://www.w3.org/2000/svg">
<path d="M10.9612 4.3561V9.01592C10.9612 9.28445 10.8713 9.50864 10.6914 9.6885C10.5116 9.86836 10.2874 9.95829 10.019 9.95829H1.98693C1.7184 9.95829 1.49421 9.86836 1.31434 9.6885C1.13448 9.50864 1.04455 9.28445 1.04455 9.01592V4.33365C0.798483 4.15194 0.618428 3.91374 0.504386 3.61906C0.390344 3.32438 0.387914 3.00992 0.497094 2.67567L1.06482 0.80448C1.1426 0.566675 1.26802 0.380056 1.44107 0.244626C1.61423 0.109292 1.82831 0.041626 2.08332 0.041626H9.89999C10.155 0.041626 10.3685 0.105015 10.5405 0.231792C10.7126 0.35857 10.8386 0.541981 10.9186 0.782022L11.5087 2.67567C11.6179 3.00992 11.6154 3.32701 11.5014 3.62694C11.3873 3.92677 11.2073 4.16983 10.9612 4.3561ZM7.28622 4.12496C7.66091 4.12496 7.94062 4.02006 8.12535 3.81025C8.31007 3.60054 8.38785 3.38388 8.35868 3.16027L7.97047 0.624959H6.29455V3.07496C6.29455 3.36138 6.39251 3.60798 6.58841 3.81477C6.78441 4.02156 7.01701 4.12496 7.28622 4.12496ZM4.66122 4.12496C4.97457 4.12496 5.22793 4.02156 5.4213 3.81477C5.61458 3.60798 5.71122 3.36138 5.71122 3.07496V0.624959H4.0353L3.64709 3.20504C3.62318 3.38607 3.70227 3.58465 3.88437 3.80077C4.06646 4.0169 4.32541 4.12496 4.66122 4.12496ZM2.06539 4.12496C2.32264 4.12496 2.54119 4.03746 2.72105 3.86246C2.90091 3.68746 3.01291 3.4691 3.05705 3.20738L3.4228 0.624959H2.08332C1.95616 0.624959 1.85519 0.653008 1.78043 0.709105C1.70566 0.765203 1.64957 0.849349 1.61214 0.961543L1.07372 2.80342C0.977955 3.11006 1.01889 3.40697 1.19651 3.69417C1.37414 3.98136 1.66376 4.12496 2.06539 4.12496ZM9.94039 4.12496C10.2896 4.12496 10.5686 3.98885 10.7773 3.71663C10.986 3.4444 11.0375 3.14 10.9321 2.80342L10.3645 0.939084C10.327 0.82689 10.2709 0.746487 10.1962 0.697876C10.1214 0.649265 10.0204 0.624959 9.89328 0.624959H8.58297L8.94872 3.20738C8.99286 3.4691 9.10486 3.68746 9.28472 3.86246C9.46458 4.03746 9.68314 4.12496 9.94039 4.12496ZM1.98693 9.37496H10.019C10.1236 9.37496 10.2096 9.34132 10.277 9.27404C10.3442 9.20667 10.3779 9.12063 10.3779 9.01592V4.63421C10.2993 4.66114 10.2247 4.68024 10.154 4.69152C10.0834 4.7027 10.0122 4.70829 9.94039 4.70829C9.67789 4.70829 9.44698 4.65706 9.24768 4.55458C9.04837 4.45211 8.85898 4.28873 8.67951 4.06444C8.52697 4.25431 8.33889 4.40909 8.11528 4.52877C7.89167 4.64845 7.61979 4.70829 7.29964 4.70829C7.06708 4.70829 6.8459 4.65409 6.6361 4.54569C6.42639 4.43719 6.21532 4.27677 6.00289 4.06444C5.80766 4.27677 5.59135 4.43719 5.35393 4.54569C5.11651 4.65409 4.89008 4.70829 4.67464 4.70829C4.43012 4.70829 4.19178 4.66153 3.95962 4.568C3.72735 4.47457 3.52372 4.30672 3.34872 4.06444C3.0623 4.35085 2.81196 4.52974 2.59768 4.60111C2.3834 4.67256 2.20597 4.70829 2.06539 4.70829C1.99364 4.70829 1.9213 4.7027 1.84839 4.69152C1.77547 4.68024 1.70197 4.66114 1.62789 4.63421V9.01592C1.62789 9.12063 1.66152 9.20667 1.7288 9.27404C1.79618 9.34132 1.88222 9.37496 1.98693 9.37496Z" fill="#2A2D32"/>
</svg>
