<svg width="11" height="9" viewBox="0 0 11 9" fill="none" xmlns="http://www.w3.org/2000/svg">
<path d="M6.36473 4.77712C6.05695 4.77712 5.79819 4.67224 5.58843 4.46248C5.37859 4.25264 5.27366 3.99383 5.27366 3.68606C5.27366 3.37838 5.37859 3.11961 5.58843 2.90976C5.79819 2.69992 6.05695 2.59499 6.36473 2.59499C6.6725 2.59499 6.93126 2.69992 7.14102 2.90976C7.35087 3.11961 7.45579 3.37838 7.45579 3.68606C7.45579 3.99383 7.35087 4.25264 7.14102 4.46248C6.93126 4.67224 6.6725 4.77712 6.36473 4.77712ZM2.98665 6.51873C2.74426 6.51873 2.53677 6.4324 2.3642 6.25974C2.19163 6.08717 2.10535 5.87973 2.10535 5.63742V1.73482C2.10535 1.49242 2.19163 1.28494 2.3642 1.11237C2.53677 0.939801 2.74426 0.853516 2.98665 0.853516H9.7428C9.9852 0.853516 10.1927 0.939801 10.3653 1.11237C10.5378 1.28494 10.6241 1.49242 10.6241 1.73482V5.63742C10.6241 5.87973 10.5378 6.08717 10.3653 6.25974C10.1927 6.4324 9.9852 6.51873 9.7428 6.51873H2.98665ZM3.53219 5.9732H9.19727C9.19727 5.72907 9.28355 5.52114 9.45612 5.34938C9.62869 5.17772 9.83617 5.09189 10.0786 5.09189V2.28036C9.83445 2.28036 9.62655 2.19407 9.45489 2.0215C9.28314 1.84884 9.19727 1.64136 9.19727 1.39905H3.53219C3.53219 1.64317 3.4459 1.85107 3.27333 2.02273C3.10076 2.19448 2.89328 2.28036 2.65088 2.28036V5.09189C2.895 5.09189 3.1029 5.17818 3.27456 5.35075C3.44631 5.52332 3.53219 5.7308 3.53219 5.9732ZM9.00851 8.15533H1.35006C1.10766 8.15533 0.900175 8.069 0.727605 7.89634C0.555035 7.72377 0.46875 7.51633 0.46875 7.27402V2.46911H1.01428V7.27402C1.01428 7.35794 1.04924 7.43486 1.11916 7.50478C1.18917 7.57479 1.26614 7.6098 1.35006 7.6098H9.00851V8.15533ZM2.98665 5.9732H2.65088V1.39905H2.98665C2.89573 1.39905 2.81704 1.43228 2.75058 1.49874C2.68411 1.56521 2.65088 1.6439 2.65088 1.73482V5.63742C2.65088 5.72835 2.68411 5.80704 2.75058 5.8735C2.81704 5.93997 2.89573 5.9732 2.98665 5.9732Z" fill="#2A2D32"/>
</svg>
