<svg width="10" height="13" viewBox="0 0 10 13" fill="none" xmlns="http://www.w3.org/2000/svg">
<path fill-rule="evenodd" clip-rule="evenodd" d="M1.42182 0.336182C1.3027 0.336182 1.18845 0.383504 1.10421 0.46774C1.01998 0.551975 0.972656 0.666222 0.972656 0.785348V12.4637C0.972656 12.5828 1.01998 12.6971 1.10421 12.7813C1.18845 12.8655 1.3027 12.9128 1.42182 12.9128C1.54095 12.9128 1.6552 12.8655 1.73943 12.7813C1.82367 12.6971 1.87099 12.5828 1.87099 12.4637V7.52285H9.50682C9.5956 7.52277 9.68237 7.49638 9.75616 7.44702C9.82995 7.39766 9.88746 7.32754 9.92143 7.24552C9.95539 7.16349 9.96428 7.07324 9.94698 6.98616C9.92969 6.89908 9.88697 6.81909 9.82423 6.75627L6.99748 3.92951L9.82423 1.10276C9.88697 1.03994 9.92969 0.959945 9.94698 0.872868C9.96428 0.78579 9.95539 0.695539 9.92143 0.613513C9.88746 0.531487 9.82995 0.461366 9.75616 0.412006C9.68237 0.362645 9.5956 0.33626 9.50682 0.336182H1.42182ZM1.87099 6.62451V1.23451H8.42283L6.04525 3.6121C5.96113 3.69632 5.91388 3.81049 5.91388 3.92951C5.91388 4.04854 5.96113 4.16271 6.04525 4.24693L8.42283 6.62451H1.87099Z" fill="#E33745"/>
</svg>
