<svg width="18" height="17" viewBox="0 0 18 17" fill="none" xmlns="http://www.w3.org/2000/svg">
<path d="M0.69043 8.3735C0.69043 3.8234 4.41324 0.100586 8.96335 0.100586C13.5135 0.100586 17.2363 3.8234 17.2363 8.3735C17.2363 12.9236 13.5135 16.6464 8.96335 16.6464C4.41324 16.6464 0.69043 12.9236 0.69043 8.3735ZM9.11846 4.23704C7.98094 4.23704 7.82582 4.23704 7.36047 4.23704C6.89512 4.28875 6.58488 4.34046 6.32635 4.44387C6.06783 4.54728 5.8093 4.7024 5.55077 4.96092C5.29224 5.21945 5.13712 5.42628 5.03371 5.73651C4.9303 5.99504 4.82689 6.30527 4.82689 6.77063C4.82689 7.23598 4.82689 7.33939 4.82689 8.52862C4.82689 9.71785 4.82689 9.87297 4.87859 10.3383C4.87859 10.8037 4.98201 11.1139 5.08542 11.3724C5.18883 11.631 5.34395 11.8895 5.60247 12.148C5.8093 12.3548 6.06783 12.51 6.37806 12.6651C6.63659 12.7685 6.94682 12.8719 7.41217 12.8719C7.87753 12.8719 8.03264 12.9236 9.17017 12.9236C10.3594 12.9236 10.5145 12.9236 10.9799 12.8719C11.4452 12.8202 11.7555 12.7685 12.014 12.6651C12.2725 12.5617 12.531 12.4065 12.7896 12.148C13.0481 11.8895 13.2032 11.6827 13.3066 11.3724C13.41 11.1139 13.5135 10.752 13.5135 10.3383C13.5652 9.87297 13.5652 9.71785 13.5652 8.52862C13.5652 7.33939 13.5652 7.23598 13.5135 6.77063C13.5135 6.30527 13.41 5.99504 13.3066 5.73651C13.2032 5.42628 13.0481 5.21945 12.7896 4.96092C12.5827 4.7541 12.3242 4.59898 12.014 4.44387C11.7555 4.34046 11.3935 4.28875 10.9799 4.23704C10.4628 4.23704 10.3077 4.23704 9.11846 4.23704ZM8.75652 5.01263C8.85993 5.01263 9.01505 5.01263 9.11846 5.01263C10.256 5.01263 10.4111 5.01263 10.8765 5.01263C11.2901 5.01263 11.4969 5.11604 11.652 5.16775C11.8589 5.27116 12.014 5.37457 12.1691 5.47798C12.3242 5.58139 12.4276 5.73651 12.4793 5.99504C12.531 6.15016 12.6345 6.35698 12.6345 6.77063C12.6862 7.23598 12.6862 7.39109 12.6862 8.52862C12.6862 9.66615 12.6862 9.82126 12.6345 10.2866C12.6345 10.7003 12.531 10.9588 12.4793 11.1139C12.4276 11.3207 12.3242 11.4241 12.1691 11.631C12.014 11.7861 11.8589 11.8378 11.652 11.9412C11.4969 11.9929 11.2901 12.0963 10.8765 12.0963C10.4111 12.0963 10.256 12.148 9.11846 12.148C7.98094 12.148 7.82582 12.148 7.36047 12.0963C6.94682 12.0963 6.74 11.9929 6.58488 11.9412C6.37806 11.8378 6.22294 11.7861 6.06783 11.631C5.91271 11.4758 5.8093 11.3207 5.75759 11.1139C5.70589 10.9588 5.65418 10.752 5.60247 10.2866C5.60247 9.82126 5.60247 9.71785 5.60247 8.52862C5.60247 7.39109 5.60247 7.23598 5.60247 6.77063C5.65418 6.35698 5.70589 6.15016 5.75759 5.99504C5.861 5.78822 5.96441 5.6331 6.06783 5.47798C6.17124 5.32286 6.37806 5.21945 6.58488 5.16775C6.74 5.11604 6.94682 5.01263 7.36047 5.01263C7.77411 5.01263 7.92923 5.01263 8.75652 5.01263ZM11.4452 5.73651C11.1867 5.73651 10.9282 5.94333 10.9282 6.25357C10.9282 6.5638 11.135 6.77063 11.4452 6.77063C11.7555 6.77063 11.9623 6.5638 11.9623 6.25357C11.9623 5.94333 11.7037 5.73651 11.4452 5.73651ZM9.11846 6.30527C7.92923 6.30527 6.89512 7.28768 6.89512 8.52862C6.89512 9.76956 7.87753 10.752 9.11846 10.752C10.3594 10.752 11.3418 9.76956 11.3418 8.52862C11.3418 7.28768 10.3594 6.30527 9.11846 6.30527ZM9.11846 7.08086C9.89405 7.08086 10.5662 7.70133 10.5662 8.52862C10.5662 9.35591 9.94576 9.97638 9.11846 9.97638C8.34288 9.97638 7.6707 9.35591 7.6707 8.52862C7.6707 7.70133 8.34288 7.08086 9.11846 7.08086Z" fill="#1C1C1C"/>
</svg>
