<svg width="38" height="38" viewBox="0 0 38 38" fill="none" xmlns="http://www.w3.org/2000/svg">
<rect x="-0.490283" y="0.490283" width="36.281" height="36.281" rx="18.1405" transform="matrix(-1 0 0 1 36.2812 0)" fill="white"/>
<rect x="-0.490283" y="0.490283" width="36.281" height="36.281" rx="18.1405" transform="matrix(-1 0 0 1 36.2812 0)" stroke="#EFECE7" stroke-width="0.980566"/>
<mask id="path-2-inside-1_2079_1631" fill="white">
<path d="M27.5254 18.6301L20.5928 11.6975L13.6602 18.6301L20.5928 25.5627L27.5254 18.6301Z"/>
</mask>
<path d="M13.6602 18.6301L12.2734 20.0169L10.8867 18.6301L12.2734 17.2434L13.6602 18.6301ZM21.9795 13.0842L15.0469 20.0169L12.2734 17.2434L19.206 10.3108L21.9795 13.0842ZM15.0469 17.2434L21.9795 24.176L19.206 26.9495L12.2734 20.0169L15.0469 17.2434Z" fill="black" mask="url(#path-2-inside-1_2079_1631)"/>
</svg>
