<svg width="13" height="13" viewBox="0 0 13 13" fill="none" xmlns="http://www.w3.org/2000/svg">
<path d="M12.2539 6.90504H1.74264C1.54343 6.90504 1.37059 6.8318 1.22411 6.68532C1.07763 6.53884 1.00439 6.36014 1.00439 6.14921C1.00439 5.93829 1.07763 5.75958 1.22411 5.61311C1.37059 5.46663 1.54343 5.39339 1.74264 5.39339H12.2539C12.4531 5.39339 12.6259 5.46663 12.7724 5.61311C12.9189 5.75958 12.9921 5.93829 12.9921 6.14921C12.9921 6.36014 12.9189 6.53884 12.7724 6.68532C12.6259 6.8318 12.4531 6.90504 12.2539 6.90504ZM6.99825 12.1431C6.89278 12.1431 6.79318 12.1255 6.69943 12.0903C6.60569 12.0552 6.52952 12.0024 6.47093 11.9321L1.21532 6.67653C1.14501 6.60622 1.08935 6.52712 1.04834 6.43924C1.00732 6.35135 0.986816 6.25468 0.986816 6.14921C0.986816 6.04375 1.00732 5.94707 1.04834 5.85919C1.08935 5.7713 1.14501 5.6922 1.21532 5.62189L6.47093 0.366286C6.54124 0.295978 6.62034 0.240316 6.70822 0.199303C6.79611 0.158289 6.89278 0.137782 6.99825 0.137782C7.20917 0.137782 7.38788 0.21395 7.53435 0.366286C7.68083 0.518623 7.75407 0.694396 7.75407 0.893605C7.75407 0.999069 7.73356 1.09867 7.69255 1.19242C7.65154 1.28616 7.59587 1.36819 7.52557 1.4385L2.79728 6.14921L7.52557 10.8599C7.59587 10.9302 7.65154 11.0123 7.69255 11.106C7.73356 11.1998 7.75407 11.2994 7.75407 11.4048C7.75407 11.5103 7.73356 11.607 7.69255 11.6948C7.65154 11.7827 7.59587 11.8618 7.52557 11.9321C7.46697 12.0024 7.39081 12.0552 7.29706 12.0903C7.20332 12.1255 7.10371 12.1431 6.99825 12.1431Z" fill="#1B192B"/>
</svg>
