<svg width="9" height="15" viewBox="0 0 9 15" fill="none" xmlns="http://www.w3.org/2000/svg">
<path fill-rule="evenodd" clip-rule="evenodd" d="M7.74775 14.1508C7.56033 14.1508 7.37292 14.0837 7.22221 13.9478L0.780621 8.09422C0.700223 8.02103 0.635993 7.93186 0.592043 7.83243C0.548093 7.73299 0.525391 7.62546 0.525391 7.51675C0.525391 7.40803 0.548093 7.30051 0.592043 7.20107C0.635993 7.10163 0.700223 7.01246 0.780621 6.93928L7.22221 1.07945C7.37639 0.947501 7.57589 0.880754 7.77843 0.893353C7.98098 0.905952 8.17066 0.996907 8.30731 1.14695C8.44395 1.29699 8.51681 1.49434 8.51046 1.69717C8.50411 1.90001 8.41905 2.09241 8.27329 2.23361L2.46657 7.51636L8.27329 12.7921C8.38913 12.8984 8.47022 13.0373 8.50599 13.1904C8.54176 13.3436 8.53054 13.504 8.47381 13.6506C8.41707 13.7973 8.31745 13.9235 8.18794 14.0127C8.05842 14.102 7.90502 14.1501 7.74775 14.1508Z" fill="#959BA7"/>
</svg>
