<svg width="15" height="13" viewBox="0 0 15 13" fill="none" xmlns="http://www.w3.org/2000/svg">
<path fill-rule="evenodd" clip-rule="evenodd" d="M7.97702 0.603244L8.02035 0.557636C8.19796 0.380043 8.43885 0.280273 8.69002 0.280273C8.94119 0.280273 9.18208 0.380043 9.35969 0.557636C9.68199 0.879931 9.80437 1.35121 9.67895 1.7898L8.85649 4.66613H13.1649C13.7167 4.66613 14.2253 4.94966 14.5164 5.40877L14.5977 5.55168L14.654 5.66342C14.7619 5.87949 14.8229 6.11597 14.8329 6.35731C14.8428 6.59864 14.8015 6.83934 14.7118 7.06357L12.908 11.5727C12.781 11.8898 12.562 12.1617 12.2791 12.3533C11.9962 12.5449 11.6625 12.6473 11.3208 12.6475H5.8213C5.3677 12.6475 4.93268 12.4673 4.61194 12.1465C4.2912 11.8258 4.11101 11.3908 4.11101 10.9372V5.66494C4.11101 5.25067 4.26151 4.85008 4.5344 4.53843L7.97702 0.603244ZM8.51215 1.72215L5.39258 5.28943C5.30151 5.39333 5.25127 5.52677 5.2512 5.66494V10.9372C5.2512 11.2519 5.5066 11.5073 5.8213 11.5073H11.3208C11.4347 11.5073 11.5459 11.4731 11.6402 11.4093C11.7345 11.3455 11.8075 11.2549 11.8499 11.1493L13.6529 6.64018C13.6829 6.56546 13.6967 6.48523 13.6934 6.40479C13.6901 6.32434 13.6698 6.2455 13.6339 6.17346L13.5776 6.06096C13.5393 5.98439 13.4803 5.92001 13.4074 5.87504C13.3345 5.83007 13.2505 5.80627 13.1649 5.80632H8.10168C8.01345 5.8063 7.92643 5.78581 7.84747 5.74645C7.76851 5.70709 7.69976 5.64994 7.64664 5.5795C7.59351 5.50906 7.55746 5.42725 7.54132 5.34051C7.52518 5.25377 7.52939 5.16447 7.55363 5.07964L8.51215 1.72215ZM1.83062 12.6475C1.52822 12.6475 1.23821 12.5273 1.02438 12.3135C0.810557 12.0997 0.69043 11.8097 0.69043 11.5073V5.80632C0.69043 5.50392 0.810557 5.21391 1.02438 5.00008C1.23821 4.78626 1.52822 4.66613 1.83062 4.66613C2.13302 4.66613 2.42303 4.78626 2.63686 5.00008C2.85069 5.21391 2.97081 5.50392 2.97081 5.80632V11.5073C2.97081 11.8097 2.85069 12.0997 2.63686 12.3135C2.42303 12.5273 2.13302 12.6475 1.83062 12.6475Z" fill="#F58634"/>
</svg>
