<svg width="12" height="11" viewBox="0 0 12 11" fill="none" xmlns="http://www.w3.org/2000/svg">
<path fill-rule="evenodd" clip-rule="evenodd" d="M6.13157 0.626288L6.16571 0.590355C6.30565 0.450432 6.49544 0.371826 6.69333 0.371826C6.89122 0.371826 7.08101 0.450432 7.22095 0.590355C7.47488 0.844283 7.5713 1.21559 7.47249 1.56115L6.82449 3.82735H10.219C10.6538 3.82735 11.0544 4.05073 11.2838 4.41246L11.3479 4.52505L11.3922 4.61309C11.4773 4.78333 11.5253 4.96965 11.5331 5.15979C11.541 5.34993 11.5085 5.53958 11.4377 5.71624L10.0166 9.26885C9.91655 9.51876 9.74399 9.73298 9.52111 9.88391C9.29823 10.0348 9.03526 10.1156 8.76609 10.1157H4.43313C4.07575 10.1157 3.733 9.97371 3.4803 9.72101C3.22759 9.4683 3.08563 9.12556 3.08563 8.76818V4.61429C3.08563 4.28789 3.20421 3.97228 3.41921 3.72674L6.13157 0.626288ZM6.55319 1.50785L4.09535 4.31844C4.0236 4.4003 3.98401 4.50543 3.98396 4.61429V8.76818C3.98396 9.01612 4.18519 9.21735 4.43313 9.21735H8.76609C8.85579 9.21733 8.94343 9.19045 9.01772 9.14017C9.09201 9.0899 9.14954 9.01853 9.18291 8.93527L10.6035 5.38266C10.6271 5.32379 10.638 5.26058 10.6354 5.1972C10.6328 5.13382 10.6168 5.07171 10.5885 5.01495L10.5442 4.92631C10.5139 4.86598 10.4675 4.81526 10.4101 4.77982C10.3526 4.74439 10.2865 4.72564 10.219 4.72568H6.22979C6.16028 4.72567 6.09172 4.70952 6.02951 4.67851C5.96729 4.6475 5.91313 4.60247 5.87127 4.54697C5.82942 4.49148 5.80101 4.42702 5.7883 4.35868C5.77558 4.29034 5.7789 4.21998 5.79799 4.15314L6.55319 1.50785ZM1.28896 10.1157C1.05071 10.1157 0.822211 10.021 0.653741 9.85256C0.485271 9.68409 0.390625 9.4556 0.390625 9.21735V4.72568C0.390625 4.48743 0.485271 4.25893 0.653741 4.09046C0.822211 3.92199 1.05071 3.82735 1.28896 3.82735C1.52721 3.82735 1.75571 3.92199 1.92418 4.09046C2.09265 4.25893 2.18729 4.48743 2.18729 4.72568V9.21735C2.18729 9.4556 2.09265 9.68409 1.92418 9.85256C1.75571 10.021 1.52721 10.1157 1.28896 10.1157Z" fill="#E33745"/>
</svg>
