<svg width="13" height="16" viewBox="0 0 13 16" fill="none" xmlns="http://www.w3.org/2000/svg">
<path d="M6.86904 4.62317C7.46744 4.62317 8.04132 4.86088 8.46445 5.28401C8.88758 5.70714 9.12529 6.28102 9.12529 6.87942C9.12529 7.47781 8.88758 8.0517 8.46445 8.47483C8.04132 8.89796 7.46744 9.13567 6.86904 9.13567C6.27065 9.13567 5.69676 8.89796 5.27363 8.47483C4.8505 8.0517 4.61279 7.47781 4.61279 6.87942C4.61279 6.28102 4.8505 5.70714 5.27363 5.28401C5.69676 4.86088 6.27065 4.62317 6.86904 4.62317ZM7.62113 6.87942C7.62113 6.67995 7.54189 6.48866 7.40085 6.34762C7.2598 6.20657 7.06851 6.12734 6.86904 6.12734C6.66958 6.12734 6.47828 6.20657 6.33724 6.34762C6.1962 6.48866 6.11696 6.67995 6.11696 6.87942C6.11696 7.07888 6.1962 7.27018 6.33724 7.41122C6.47828 7.55226 6.66958 7.6315 6.86904 7.6315C7.06851 7.6315 7.2598 7.55226 7.40085 7.41122C7.54189 7.27018 7.62113 7.07888 7.62113 6.87942Z" fill="#535969"/>
<path d="M0.852051 6.87934C0.852051 5.28362 1.48595 3.75326 2.61429 2.62491C3.74264 1.49657 5.273 0.862671 6.86872 0.862671C8.46444 0.862671 9.9948 1.49657 11.1231 2.62491C12.2515 3.75326 12.8854 5.28362 12.8854 6.87934C12.8854 8.99495 11.0556 11.8356 7.39518 15.4004C7.25459 15.5382 7.06558 15.6154 6.86872 15.6154C6.67186 15.6154 6.48285 15.5382 6.34226 15.4004C2.68187 11.8356 0.852051 8.99495 0.852051 6.87934ZM11.3812 6.87934C11.3812 5.68255 10.9058 4.53478 10.0595 3.68852C9.21328 2.84226 8.06551 2.36684 6.86872 2.36684C5.67193 2.36684 4.52416 2.84226 3.6779 3.68852C2.83164 4.53478 2.35622 5.68255 2.35622 6.87934C2.35622 7.78936 2.95788 9.88767 6.86872 13.806C10.7796 9.88767 11.3812 7.78936 11.3812 6.87934Z" fill="#535969"/>
</svg>
