<svg width="17" height="17" viewBox="0 0 17 17" fill="none" xmlns="http://www.w3.org/2000/svg">
<path d="M8.83336 4.43182C6.3439 4.43182 4.32579 6.44993 4.32579 8.93939C4.32579 11.4289 6.3439 13.447 8.83336 13.447C11.3228 13.447 13.3409 11.4289 13.3409 8.93939C13.3409 6.44993 11.3228 4.43182 8.83336 4.43182ZM8.83336 4.43182V0.375M8.83336 16.6023V12.9962M4.77654 8.48864H0.719727M16.947 8.48864H12.8902M10.6364 8.93939C10.6364 9.93518 9.82915 10.7424 8.83336 10.7424C7.83758 10.7424 7.03033 9.93518 7.03033 8.93939C7.03033 7.94361 7.83758 7.13636 8.83336 7.13636C9.82915 7.13636 10.6364 7.94361 10.6364 8.93939Z" stroke="#FFE9EB" stroke-width="0.901515"/>
</svg>
