<svg width="30" height="30" viewBox="0 0 30 30" fill="none" xmlns="http://www.w3.org/2000/svg">
<circle cx="15" cy="15" r="15" fill="white"/>
<path d="M7.90717 20.5634C7.61428 20.8563 7.61428 21.3312 7.90717 21.6241C8.20006 21.917 8.67494 21.917 8.96783 21.6241L7.90717 20.5634ZM12.1875 17.3438L12.7178 16.8134C12.4249 16.5205 11.9501 16.5205 11.6572 16.8134L12.1875 17.3438ZM14.0625 19.2188L13.5322 19.7491C13.8251 20.042 14.2999 20.042 14.5928 19.7491L14.0625 19.2188ZM18.2812 15L18.8116 14.4697C18.5187 14.1768 18.0438 14.1768 17.7509 14.4697L18.2812 15ZM21.5009 19.2803C21.7938 19.5732 22.2687 19.5732 22.5616 19.2803C22.8545 18.9874 22.8545 18.5126 22.5616 18.2197L21.5009 19.2803ZM8.96783 21.6241L12.7178 17.8741L11.6572 16.8134L7.90717 20.5634L8.96783 21.6241ZM11.6572 17.8741L13.5322 19.7491L14.5928 18.6884L12.7178 16.8134L11.6572 17.8741ZM14.5928 19.7491L18.8116 15.5303L17.7509 14.4697L13.5322 18.6884L14.5928 19.7491ZM17.7509 15.5303L21.5009 19.2803L22.5616 18.2197L18.8116 14.4697L17.7509 15.5303ZM10.3125 8.25H19.6875V6.75H10.3125V8.25ZM21.75 10.3125V19.6875H23.25V10.3125H21.75ZM19.6875 21.75H10.3125V23.25H19.6875V21.75ZM8.25 19.6875V10.3125H6.75V19.6875H8.25ZM10.3125 21.75C9.17341 21.75 8.25 20.8266 8.25 19.6875H6.75C6.75 21.655 8.34499 23.25 10.3125 23.25V21.75ZM21.75 19.6875C21.75 20.8266 20.8266 21.75 19.6875 21.75V23.25C21.655 23.25 23.25 21.655 23.25 19.6875H21.75ZM19.6875 8.25C20.8266 8.25 21.75 9.17341 21.75 10.3125H23.25C23.25 8.34499 21.655 6.75 19.6875 6.75V8.25ZM10.3125 6.75C8.34499 6.75 6.75 8.34499 6.75 10.3125H8.25C8.25 9.17341 9.17341 8.25 10.3125 8.25V6.75ZM12.375 11.7188C12.375 12.0812 12.0812 12.375 11.7188 12.375V13.875C12.9096 13.875 13.875 12.9096 13.875 11.7188H12.375ZM11.7188 12.375C11.3563 12.375 11.0625 12.0812 11.0625 11.7188H9.5625C9.5625 12.9096 10.5279 13.875 11.7188 13.875V12.375ZM11.0625 11.7188C11.0625 11.3563 11.3563 11.0625 11.7188 11.0625V9.5625C10.5279 9.5625 9.5625 10.5279 9.5625 11.7188H11.0625ZM11.7188 11.0625C12.0812 11.0625 12.375 11.3563 12.375 11.7188H13.875C13.875 10.5279 12.9096 9.5625 11.7188 9.5625V11.0625Z" fill="#E33745"/>
</svg>
