<svg width="17" height="17" viewBox="0 0 17 17" fill="none" xmlns="http://www.w3.org/2000/svg">
<path d="M11.8338 6.95994L7.43377 11.3599C7.31643 11.4773 7.1751 11.5359 7.00977 11.5359C6.84443 11.5359 6.7031 11.4773 6.58577 11.3599L4.18577 8.95994C4.06843 8.8426 4.00977 8.6986 4.00977 8.52794C4.00977 8.35727 4.06843 8.21594 4.18577 8.10394C4.3031 7.99194 4.44443 7.93594 4.60977 7.93594C4.7751 7.93594 4.91643 7.9946 5.03377 8.11194L7.01777 10.0799L10.9858 6.11194C11.1031 5.9946 11.2444 5.93594 11.4098 5.93594C11.5751 5.93594 11.7164 5.9946 11.8338 6.11194C11.9511 6.22927 12.0098 6.3706 12.0098 6.53594C12.0098 6.70127 11.9511 6.8426 11.8338 6.95994ZM13.6738 2.67194C12.9058 1.90394 12.0204 1.31727 11.0178 0.911937C10.0578 0.527937 9.0551 0.335938 8.00977 0.335938C6.96443 0.335938 5.96177 0.527937 5.00177 0.911937C3.9991 1.31727 3.11377 1.90394 2.34577 2.67194C1.57777 3.43994 0.991099 4.31994 0.585766 5.31194C0.201766 6.2826 0.00976562 7.28794 0.00976562 8.32794C0.00976562 9.36794 0.201766 10.3733 0.585766 11.3439C0.991099 12.3359 1.57777 13.2159 2.34577 13.9839C3.11377 14.7519 3.9991 15.3386 5.00177 15.7439C5.96177 16.1386 6.96443 16.3359 8.00977 16.3359C9.0551 16.3359 10.0578 16.1386 11.0178 15.7439C12.0204 15.3386 12.9058 14.7519 13.6738 13.9839C14.4418 13.2159 15.0284 12.3306 15.4338 11.3279C15.8284 10.3679 16.0258 9.36527 16.0258 8.31994C16.0258 7.2746 15.8284 6.27194 15.4338 5.31194C15.0284 4.31994 14.4418 3.43994 13.6738 2.67194Z" fill="#2A770F"/>
</svg>
