<svg width="46" height="46" viewBox="0 0 46 46" fill="none" xmlns="http://www.w3.org/2000/svg">
<path fill-rule="evenodd" clip-rule="evenodd" d="M23.1298 6.24483C13.7412 6.24483 6.10421 13.8818 6.10421 23.2705C6.10421 32.6592 13.7412 40.2961 23.1298 40.2961C32.5185 40.2961 40.1555 32.6592 40.1555 23.2705C40.1555 13.8818 32.5185 6.24483 23.1298 6.24483ZM23.1298 43.1337C12.1767 43.1337 3.2666 34.2236 3.2666 23.2705C3.2666 12.3173 12.1767 3.40723 23.1298 3.40723C34.083 3.40723 42.9931 12.3173 42.9931 23.2705C42.9931 34.2236 34.083 43.1337 23.1298 43.1337Z" fill="white"/>
<path fill-rule="evenodd" clip-rule="evenodd" d="M27.8596 27.0542C28.6121 27.0542 29.3339 27.3531 29.866 27.8853C30.3982 28.4174 30.6972 29.1392 30.6972 29.8918C30.6972 30.6444 30.3982 31.3661 29.866 31.8983C29.3339 32.4304 28.6121 32.7294 27.8596 32.7294C27.107 32.7294 26.3852 32.4304 25.8531 31.8983C25.3209 31.3661 25.0219 30.6444 25.0219 29.8918C25.0219 29.1392 25.3209 28.4174 25.8531 27.8853C26.3852 27.3531 27.107 27.0542 27.8596 27.0542ZM32.1595 14.2414C32.4252 14.5075 32.5744 14.8681 32.5744 15.2441C32.5744 15.62 32.4252 15.9807 32.1595 16.2467L16.1081 32.3C15.8406 32.5585 15.4823 32.7017 15.1103 32.6987C14.7383 32.6956 14.3823 32.5466 14.1192 32.2836C13.856 32.0207 13.7066 31.6649 13.7032 31.2929C13.6998 30.9209 13.8426 30.5624 14.1009 30.2947L30.1523 14.2414C30.2841 14.1096 30.4405 14.005 30.6127 13.9336C30.7849 13.8623 30.9695 13.8256 31.1559 13.8256C31.3423 13.8256 31.5269 13.8623 31.6991 13.9336C31.8713 14.005 32.0277 14.1096 32.1595 14.2414ZM18.4009 13.812C19.1534 13.812 19.8752 14.111 20.4074 14.6431C20.9395 15.1753 21.2385 15.897 21.2385 16.6496C21.2385 17.4022 20.9395 18.124 20.4074 18.6561C19.8752 19.1883 19.1534 19.4872 18.4009 19.4872C17.6483 19.4872 16.9265 19.1883 16.3944 18.6561C15.8622 18.124 15.5633 17.4022 15.5633 16.6496C15.5633 15.897 15.8622 15.1753 16.3944 14.6431C16.9265 14.111 17.6483 13.812 18.4009 13.812Z" fill="white"/>
</svg>
