<svg width="14" height="16" viewBox="0 0 14 16" fill="none" xmlns="http://www.w3.org/2000/svg">
<path d="M2.94136 4.807C2.94139 4.08634 3.13036 3.37828 3.48941 2.75344C3.84846 2.12859 4.36506 1.6088 4.98767 1.24589C5.61028 0.882975 6.31716 0.689632 7.0378 0.685139C7.75845 0.680646 8.46768 0.865159 9.09477 1.22028C9.72186 1.5754 10.2449 2.08871 10.6117 2.70903C10.9785 3.32935 11.1763 4.035 11.1853 4.7556C11.1944 5.47621 11.0143 6.18658 10.6631 6.81589C10.312 7.4452 9.80194 7.97145 9.18394 8.34216C11.1873 8.83187 12.6152 10.0801 13.4644 12.0875C13.6235 12.4635 13.687 12.873 13.6493 13.2796C13.6116 13.6861 13.4739 14.0769 13.2484 14.4173C13.023 14.7576 12.7167 15.0369 12.3571 15.2301C11.9974 15.4233 11.5956 15.5245 11.1873 15.5246H2.93971C2.53138 15.5246 2.1294 15.4235 1.76964 15.2304C1.40989 15.0372 1.10355 14.758 0.877977 14.4176C0.652402 14.0773 0.514604 13.6864 0.476885 13.2798C0.439165 12.8732 0.502696 12.4636 0.661808 12.0875C1.51097 10.0801 2.93641 8.83187 4.9406 8.34216C4.33025 7.97593 3.82525 7.45776 3.47486 6.83818C3.12447 6.21861 2.94066 5.51879 2.94136 4.807ZM4.59021 4.807C4.59021 5.13169 4.65417 5.4532 4.77842 5.75317C4.90267 6.05315 5.08479 6.32571 5.31438 6.5553C5.54397 6.78489 5.81653 6.96701 6.11651 7.09126C6.41648 7.21551 6.73799 7.27947 7.06268 7.27947C7.38737 7.27947 7.70888 7.21551 8.00885 7.09126C8.30882 6.96701 8.58139 6.78489 8.81098 6.5553C9.04056 6.32571 9.22269 6.05315 9.34694 5.75317C9.47119 5.4532 9.53514 5.13169 9.53514 4.807C9.53514 4.15105 9.27457 3.52195 8.81073 3.05812C8.3469 2.59429 7.71781 2.33371 7.06185 2.33371C6.4059 2.33371 5.77681 2.59429 5.31298 3.05812C4.84914 3.52195 4.58857 4.15105 4.58857 4.807H4.59021ZM2.68578 13.8337C2.76978 13.8617 2.85776 13.8759 2.9463 13.8757H11.1799C11.3104 13.8758 11.4391 13.8449 11.5553 13.7855C11.6715 13.7262 11.772 13.6401 11.8485 13.5343C11.9249 13.4286 11.9752 13.3062 11.9951 13.1772C12.015 13.0482 12.0041 12.9163 11.9631 12.7924C11.2912 10.7668 9.65881 9.75358 7.0635 9.75358C4.46655 9.75358 2.83418 10.7668 2.16392 12.7924C2.12984 12.8951 2.11632 13.0035 2.12415 13.1114C2.13197 13.2193 2.16099 13.3247 2.20953 13.4214C2.25807 13.518 2.32518 13.6042 2.40704 13.675C2.4889 13.7457 2.58307 13.7997 2.68578 13.8337Z" fill="#2D333F"/>
</svg>
