<svg width="10" height="10" viewBox="0 0 10 10" fill="none" xmlns="http://www.w3.org/2000/svg">
<path d="M1.3833 9.49163C1.14268 9.49163 0.936711 9.40593 0.765405 9.23453C0.594002 9.06322 0.508301 8.85726 0.508301 8.61663V1.3833C0.508301 1.14268 0.594002 0.936662 0.765405 0.765259C0.936711 0.593953 1.14268 0.508301 1.3833 0.508301H8.61663C8.85726 0.508301 9.06327 0.593953 9.23468 0.765259C9.40598 0.936662 9.49163 1.14268 9.49163 1.3833V8.61663C9.49163 8.85726 9.40598 9.06322 9.23468 9.23453C9.06327 9.40593 8.85726 9.49163 8.61663 9.49163H1.3833ZM1.3833 9.0833H8.61663C8.75275 9.0833 8.86455 9.03955 8.95205 8.95205C9.03955 8.86455 9.0833 8.75275 9.0833 8.61663V2.0833H0.916634V8.61663C0.916634 8.75275 0.960384 8.86455 1.04788 8.95205C1.13538 9.03955 1.24719 9.0833 1.3833 9.0833ZM4.99997 7.1583C4.41663 7.1583 3.8892 7.01247 3.41768 6.7208C2.94615 6.42913 2.584 6.04997 2.33122 5.5833C2.584 5.11663 2.94615 4.73747 3.41768 4.4458C3.8892 4.15413 4.41663 4.0083 4.99997 4.0083C5.5833 4.0083 6.11073 4.15413 6.58226 4.4458C7.05379 4.73747 7.41594 5.11663 7.66872 5.5833C7.41594 6.04997 7.05379 6.42913 6.58226 6.7208C6.11073 7.01247 5.5833 7.1583 4.99997 7.1583ZM4.99997 6.74997C5.43747 6.74997 5.84823 6.64788 6.23226 6.44372C6.61629 6.23955 6.94927 5.95274 7.23122 5.5833C6.94927 5.21386 6.61629 4.92705 6.23226 4.72288C5.84823 4.51872 5.43747 4.41663 4.99997 4.41663C4.56247 4.41663 4.1517 4.51872 3.76768 4.72288C3.38365 4.92705 3.05066 5.21386 2.76872 5.5833C3.05066 5.95274 3.38365 6.23955 3.76768 6.44372C4.1517 6.64788 4.56247 6.74997 4.99997 6.74997ZM5.00347 6.16663C5.16641 6.16663 5.30379 6.10956 5.41559 5.99543C5.5274 5.88138 5.5833 5.74284 5.5833 5.5798C5.5833 5.41686 5.52623 5.27948 5.41209 5.16768C5.29805 5.05587 5.15951 4.99997 4.99647 4.99997C4.83352 4.99997 4.69615 5.05704 4.58434 5.17118C4.47254 5.28522 4.41663 5.42376 4.41663 5.5868C4.41663 5.74975 4.4737 5.88712 4.58784 5.99893C4.70188 6.11073 4.84043 6.16663 5.00347 6.16663Z" fill="white"/>
</svg>
