<svg width="11" height="11" viewBox="0 0 11 11" fill="none" xmlns="http://www.w3.org/2000/svg">
<path fill-rule="evenodd" clip-rule="evenodd" d="M5.69272 0C8.59241 0 10.9431 2.35065 10.9431 5.25034C10.9431 8.15003 8.59241 10.5007 5.69272 10.5007C2.79303 10.5007 0.442383 8.15003 0.442383 5.25034C0.442383 2.35065 2.79303 0 5.69272 0ZM5.69272 0.656542C5.08946 0.656542 4.4921 0.775364 3.93475 1.00622C3.37741 1.23708 2.87099 1.57546 2.44442 2.00203C2.01784 2.42861 1.67947 2.93502 1.44861 3.49237C1.21775 4.04971 1.09893 4.64707 1.09893 5.25034C1.09893 5.85361 1.21775 6.45096 1.44861 7.00831C1.67947 7.56565 2.01784 8.07207 2.44442 8.49864C2.87099 8.92522 3.37741 9.26359 3.93475 9.49445C4.4921 9.72531 5.08946 9.84414 5.69272 9.84414C6.91114 9.84414 8.07965 9.36012 8.9412 8.49857C9.80275 7.63702 10.2868 6.46851 10.2868 5.25009C10.2868 4.03167 9.80275 2.86316 8.9412 2.00161C8.07965 1.14006 6.91114 0.656542 5.69272 0.656542Z" fill="white"/>
<path fill-rule="evenodd" clip-rule="evenodd" d="M5.6922 7.21897C5.82269 7.21897 5.94784 7.27081 6.04012 7.36308C6.13239 7.45536 6.18423 7.58051 6.18423 7.711C6.18423 7.8415 6.13239 7.96665 6.04012 8.05892C5.94784 8.1512 5.82269 8.20303 5.6922 8.20303C5.5617 8.20303 5.43655 8.1512 5.34428 8.05892C5.252 7.96665 5.20016 7.8415 5.20016 7.711C5.20016 7.58051 5.252 7.45536 5.34428 7.36308C5.43655 7.27081 5.5617 7.21897 5.6922 7.21897ZM5.7692 2.13264C6.80777 2.13264 7.3328 2.91769 7.3328 3.69574C7.3328 4.17977 7.12679 4.6128 6.57125 5.16784C6.13172 5.60737 6.02022 5.82688 6.02022 6.0704V6.39842C6.02022 6.44149 6.01173 6.48415 5.99525 6.52395C5.97876 6.56374 5.9546 6.5999 5.92414 6.63036C5.89368 6.66082 5.85752 6.68498 5.81772 6.70147C5.77793 6.71795 5.73527 6.72644 5.6922 6.72644C5.64912 6.72644 5.60646 6.71795 5.56667 6.70147C5.52687 6.68498 5.49071 6.66082 5.46025 6.63036C5.42979 6.5999 5.40563 6.56374 5.38914 6.52395C5.37266 6.48415 5.36417 6.44149 5.36417 6.39842V6.0704C5.36417 5.63187 5.55419 5.25634 6.10722 4.70381C6.54725 4.26378 6.67676 3.99176 6.67676 3.69574C6.67676 3.23771 6.37674 2.78868 5.7692 2.78868C5.08616 2.78868 4.70763 3.22071 4.70763 3.69574C4.70763 3.73882 4.69915 3.78147 4.68266 3.82127C4.66618 3.86107 4.64202 3.89723 4.61156 3.92769C4.5811 3.95815 4.54494 3.98231 4.50514 3.9988C4.46534 4.01528 4.42269 4.02376 4.37961 4.02376C4.33653 4.02376 4.29388 4.01528 4.25408 3.9988C4.21429 3.98231 4.17812 3.95815 4.14766 3.92769C4.1172 3.89723 4.09304 3.86107 4.07656 3.82127C4.06007 3.78147 4.05159 3.73882 4.05159 3.69574C4.05159 2.87569 4.70313 2.13264 5.7692 2.13264Z" fill="white"/>
</svg>
