<svg width="9" height="9" viewBox="0 0 9 9" fill="none" xmlns="http://www.w3.org/2000/svg">
<circle cx="4.5" cy="4.5" r="4.25" fill="white" stroke="#E33745" stroke-width="0.5"/>
<path d="M5.12109 5.70605H4.39453C4.39714 5.45605 4.41927 5.25163 4.46094 5.09277C4.50521 4.93132 4.57682 4.78418 4.67578 4.65137C4.77474 4.51855 4.90625 4.36751 5.07031 4.19824C5.1901 4.07585 5.29948 3.96126 5.39844 3.85449C5.5 3.74512 5.58203 3.62793 5.64453 3.50293C5.70703 3.37533 5.73828 3.22298 5.73828 3.0459C5.73828 2.86621 5.70573 2.71126 5.64062 2.58105C5.57812 2.45085 5.48438 2.35059 5.35938 2.28027C5.23698 2.20996 5.08464 2.1748 4.90234 2.1748C4.7513 2.1748 4.60807 2.20215 4.47266 2.25684C4.33724 2.31152 4.22786 2.39616 4.14453 2.51074C4.0612 2.62272 4.01823 2.76986 4.01562 2.95215H3.29297C3.29818 2.65788 3.37109 2.40527 3.51172 2.19434C3.65495 1.9834 3.84766 1.82194 4.08984 1.70996C4.33203 1.59798 4.60286 1.54199 4.90234 1.54199C5.23307 1.54199 5.51432 1.60189 5.74609 1.72168C5.98047 1.84147 6.15885 2.01335 6.28125 2.2373C6.40365 2.45866 6.46484 2.72168 6.46484 3.02637C6.46484 3.26074 6.41667 3.47689 6.32031 3.6748C6.22656 3.87012 6.10547 4.05371 5.95703 4.22559C5.80859 4.39746 5.65104 4.56152 5.48438 4.71777C5.34115 4.85059 5.24479 5.00033 5.19531 5.16699C5.14583 5.33366 5.12109 5.51335 5.12109 5.70605ZM4.36328 6.94434C4.36328 6.82715 4.39974 6.72819 4.47266 6.64746C4.54557 6.56673 4.65104 6.52637 4.78906 6.52637C4.92969 6.52637 5.03646 6.56673 5.10938 6.64746C5.18229 6.72819 5.21875 6.82715 5.21875 6.94434C5.21875 7.05632 5.18229 7.15267 5.10938 7.2334C5.03646 7.31413 4.92969 7.35449 4.78906 7.35449C4.65104 7.35449 4.54557 7.31413 4.47266 7.2334C4.39974 7.15267 4.36328 7.05632 4.36328 6.94434Z" fill="#E33745"/>
</svg>
