<svg width="27" height="27" viewBox="0 0 27 27" fill="none" xmlns="http://www.w3.org/2000/svg">
<g clip-path="url(#clip0_202_3678)">
<g clip-path="url(#clip1_202_3678)">
<path d="M14.83 0.702463L15.9826 2.13373C16.2165 2.42518 16.537 2.64189 16.9018 2.75537C17.2668 2.86885 17.6591 2.87375 18.027 2.76944L19.8392 2.26226C20.1189 2.18354 20.4135 2.1673 20.7008 2.21483C20.988 2.26236 21.26 2.37241 21.4959 2.53646C21.7319 2.70052 21.9255 2.91424 22.0617 3.1612C22.198 3.40815 22.2734 3.68177 22.282 3.961L22.3364 5.76747C22.3464 6.13498 22.4723 6.49099 22.6974 6.78864C22.9226 7.08628 23.2365 7.3116 23.5978 7.43496L25.3739 8.0429C25.6487 8.13667 25.8973 8.28961 26.1007 8.48991C26.304 8.69022 26.4566 8.93256 26.547 9.19831C26.6374 9.46406 26.6628 9.74612 26.6215 10.0228C26.5802 10.2995 26.4733 10.5634 26.3089 10.7943L25.2434 12.2845C25.0274 12.5889 24.9118 12.9483 24.9118 13.3164C24.9118 13.6844 25.0274 14.0438 25.2434 14.3481L26.3089 15.8384C26.4733 16.0693 26.5802 16.3333 26.6215 16.6099C26.6628 16.8866 26.6374 17.1687 26.547 17.4344C26.4566 17.7002 26.304 17.9425 26.1007 18.1428C25.8973 18.3431 25.6487 18.496 25.3739 18.5898L23.5978 19.1978C23.2365 19.3211 22.9226 19.5465 22.6974 19.8441C22.4723 20.1418 22.3464 20.4978 22.3364 20.8653L22.282 22.6717C22.2742 22.9513 22.1992 23.2252 22.0632 23.4725C21.9271 23.7198 21.7335 23.9338 21.4974 24.098C21.2613 24.2622 20.9889 24.3722 20.7013 24.4195C20.4138 24.4667 20.1189 24.4499 19.8392 24.3704L18.027 23.8633C17.659 23.7599 17.267 23.7654 16.9024 23.8788C16.5378 23.9921 16.2172 24.2084 15.9826 24.499L14.83 25.9302C14.6518 26.1516 14.4233 26.3308 14.1615 26.4542C13.8998 26.5774 13.6119 26.6415 13.3203 26.6415C13.0287 26.6415 12.741 26.5774 12.4793 26.4542C12.2176 26.3308 11.9888 26.1516 11.8107 25.9302L10.6617 24.499C10.4263 24.2084 10.105 23.9923 9.73982 23.879C9.37463 23.7657 8.98237 23.7601 8.61387 23.8633L6.80159 24.3704C6.5219 24.4499 6.22687 24.4667 5.93934 24.4195C5.65181 24.3722 5.3794 24.2622 5.14327 24.098C4.90716 23.9338 4.71371 23.7198 4.57765 23.4725C4.44158 23.2252 4.36652 22.9513 4.35855 22.6717L4.30793 20.8653C4.2962 20.4976 4.16916 20.142 3.94352 19.8446C3.7179 19.5472 3.40406 19.3218 3.04287 19.1978L1.26686 18.5898C0.992158 18.496 0.743558 18.3431 0.540184 18.1428C0.336809 17.9425 0.184162 17.7002 0.0938384 17.4344C0.00351533 17.1687 -0.022103 16.8866 0.0191525 16.6099C0.060408 16.3333 0.167329 16.0693 0.331701 15.8384L1.3973 14.3481C1.61519 14.0446 1.73198 13.6848 1.73198 13.3164C1.73198 12.9479 1.61519 12.5881 1.3973 12.2845L0.331701 10.7943C0.169609 10.5632 0.0647898 10.2997 0.0251699 10.0239C-0.01445 9.74807 0.0122996 9.46722 0.103218 9.20278C0.194137 8.93834 0.346794 8.69731 0.549741 8.49809C0.752687 8.29887 1.00047 8.14676 1.27412 8.05332L3.05013 7.44538C3.41132 7.32136 3.72516 7.09594 3.95078 6.79851C4.1764 6.50109 4.30345 6.14545 4.31518 5.7779L4.3658 3.97144C4.37449 3.69219 4.44987 3.41857 4.58614 3.17161C4.72242 2.92465 4.91602 2.71093 5.15195 2.54687C5.38788 2.38282 5.65989 2.27279 5.94712 2.22526C6.23435 2.17773 6.52918 2.19394 6.80885 2.27267L8.62113 2.77988C8.98957 2.88397 9.38219 2.87896 9.74761 2.76553C10.113 2.65208 10.4342 2.43549 10.669 2.14414L11.8179 0.712874C11.9953 0.492219 12.223 0.313361 12.4836 0.189958C12.7441 0.0665537 13.0307 0.00187201 13.3213 0.000866402C13.6121 -0.000139208 13.899 0.0625503 14.1604 0.184148C14.4219 0.305745 14.6509 0.483041 14.83 0.702463Z" fill="#E33745"/>
<path d="M19.7169 9.74691C19.5161 9.5853 19.2588 9.5029 18.9969 9.51646C18.7352 9.53 18.4884 9.63846 18.3069 9.81985L12.6961 15.1976C12.5724 15.3157 12.405 15.3821 12.2304 15.3821C12.0558 15.3821 11.8883 15.3157 11.7646 15.1976L9.33611 12.8735C9.17344 12.711 8.95709 12.6075 8.72376 12.5809C8.49042 12.5544 8.25463 12.6062 8.05671 12.7275C7.93415 12.806 7.83115 12.9095 7.75532 13.0305C7.67948 13.1516 7.63271 13.2873 7.61816 13.4279C7.6036 13.5684 7.62173 13.7102 7.67125 13.8432C7.72077 13.9762 7.80043 14.0971 7.90451 14.197L11.7646 17.8968C11.8883 18.0149 12.0558 18.0813 12.2304 18.0813C12.405 18.0813 12.5724 18.0149 12.6961 17.8968L19.7532 11.1295C19.849 11.0382 19.9243 10.9292 19.9746 10.809C20.0249 10.6889 20.049 10.5602 20.0456 10.4307C20.0421 10.3013 20.0113 10.1739 19.9548 10.0564C19.8983 9.93878 19.8173 9.83348 19.7169 9.74691Z" fill="white"/>
</g>
</g>
<defs>
<clipPath id="clip0_202_3678">
<rect width="26.6407" height="26.6407" fill="white" transform="translate(0 0.000244141)"/>
</clipPath>
<clipPath id="clip1_202_3678">
<rect width="26.6407" height="26.6407" fill="white" transform="translate(0 0.000610352)"/>
</clipPath>
</defs>
</svg>
