<svg width="15" height="14" viewBox="0 0 15 14" fill="none" xmlns="http://www.w3.org/2000/svg">
<path d="M2.30807 9.88748C1.52595 9.10521 0.985134 8.11464 0.750022 7.03373C0.514911 5.95281 0.595409 4.8271 0.981933 3.79064C1.36846 2.75418 2.04472 1.85064 2.93019 1.18763C3.81566 0.524607 4.87302 0.130042 5.97638 0.0509178C7.07973 -0.0282068 8.18258 0.211442 9.1536 0.741327C10.1246 1.27121 10.9229 2.06901 11.4533 3.03971C11.9838 4.01041 12.2241 5.11311 12.1456 6.21652C12.0672 7.31992 11.6732 8.37752 11.0107 9.26338L14.2582 12.5116C14.3355 12.5889 14.3789 12.6938 14.3789 12.8031C14.3789 12.9124 14.3355 13.0172 14.2582 13.0945L13.6753 13.6774C13.598 13.7547 13.4932 13.7981 13.3839 13.7981C13.2746 13.7981 13.1697 13.7547 13.0924 13.6774L9.84418 10.4291C8.73257 11.2598 7.35892 11.6623 5.97477 11.5628C4.59063 11.4634 3.28946 10.8686 2.30807 9.88748ZM3.47299 2.89219C3.08746 3.27436 2.78121 3.72891 2.57183 4.22975C2.36244 4.73059 2.25404 5.26785 2.25285 5.8107C2.25167 6.35355 2.35771 6.89128 2.5649 7.39303C2.77209 7.89479 3.07634 8.35067 3.46019 8.73452C3.84404 9.11838 4.29993 9.42263 4.80169 9.62982C5.30344 9.83701 5.84117 9.94305 6.38402 9.94186C6.92687 9.94068 7.46413 9.83228 7.96497 9.62289C8.46581 9.41351 8.92036 9.10726 9.30253 8.72173C10.0534 7.94428 10.4689 6.90302 10.4595 5.82221C10.4501 4.74139 10.0166 3.70751 9.25232 2.94323C8.48804 2.17895 7.45415 1.74543 6.37333 1.73603C5.29252 1.72664 4.25126 2.14213 3.47381 2.89301L3.47299 2.89219Z" fill="#2D333F"/>
</svg>
