<svg width="41" height="41" viewBox="0 0 41 41" fill="none" xmlns="http://www.w3.org/2000/svg">
<path fill-rule="evenodd" clip-rule="evenodd" d="M20.4262 0.40625C31.3964 0.40625 40.2895 9.29931 40.2895 20.2695C40.2895 31.2397 31.3964 40.1327 20.4262 40.1327C9.45605 40.1327 0.562988 31.2397 0.562988 20.2695C0.562988 9.29931 9.45605 0.40625 20.4262 0.40625ZM20.4262 2.8901C18.1439 2.8901 15.884 3.33963 13.7754 4.21303C11.6669 5.08643 9.75097 6.36658 8.13715 7.98041C6.52332 9.59423 5.24316 11.5101 4.36977 13.6187C3.49637 15.7273 3.04684 17.9872 3.04684 20.2695C3.04684 22.5518 3.49637 24.8117 4.36977 26.9203C5.24316 29.0289 6.52332 30.9448 8.13715 32.5586C9.75097 34.1724 11.6669 35.4526 13.7754 36.326C15.884 37.1994 18.1439 37.6489 20.4262 37.6489C25.0358 37.6489 29.4565 35.8178 32.716 32.5583C35.9754 29.2989 37.8066 24.8781 37.8066 20.2686C37.8066 15.659 35.9754 11.2382 32.716 7.97879C29.4565 4.71935 25.0358 2.8901 20.4262 2.8901Z" fill="white"/>
<path fill-rule="evenodd" clip-rule="evenodd" d="M15.3328 29.8687C14.2242 30.6576 12.7808 29.5434 13.2235 28.2664L15.3176 22.2148L10.575 18.6016C9.51757 17.7957 10.0775 16.0874 11.4112 16.0874H17.3286L19.103 10.3744C19.5097 9.06531 21.3447 9.06531 21.7514 10.3744L23.5259 16.0874H29.4432C30.7542 16.0874 31.3293 17.7484 30.3134 18.5751L25.8357 22.2148L27.6518 28.4008C28.0244 29.6701 26.5924 30.7125 25.5141 29.9331L20.4197 26.2499L15.3309 29.8687H15.3328Z" fill="white"/>
</svg>
