<svg width="47" height="46" viewBox="0 0 47 46" fill="none" xmlns="http://www.w3.org/2000/svg">
<path fill-rule="evenodd" clip-rule="evenodd" d="M33.415 1.98779C33.7913 1.98779 34.1522 2.13727 34.4182 2.40335C34.6843 2.66943 34.8338 3.03031 34.8338 3.4066V6.2442H41.9278C42.3041 6.2442 42.665 6.39368 42.9311 6.65976C43.1971 6.92584 43.3466 7.28672 43.3466 7.66301V41.7143C43.3466 42.0906 43.1971 42.4515 42.9311 42.7175C42.665 42.9836 42.3041 43.1331 41.9278 43.1331H5.03892C4.66263 43.1331 4.30175 42.9836 4.03568 42.7175C3.7696 42.4515 3.62012 42.0906 3.62012 41.7143V7.66301C3.62012 7.28672 3.7696 6.92584 4.03568 6.65976C4.30175 6.39368 4.66263 6.2442 5.03892 6.2442H12.1329V3.4066C12.1329 3.03031 12.2824 2.66943 12.5485 2.40335C12.8146 2.13727 13.1755 1.98779 13.5517 1.98779C13.928 1.98779 14.2889 2.13727 14.555 2.40335C14.8211 2.66943 14.9705 3.03031 14.9705 3.4066V6.2442H31.9962V3.4066C31.9962 3.03031 32.1457 2.66943 32.4117 2.40335C32.6778 2.13727 33.0387 1.98779 33.415 1.98779ZM40.509 17.5946H6.45772V40.2955H40.509V17.5946ZM12.1329 9.08181H6.45772V14.757H40.509V9.08181H34.8338V10.5006C34.8338 10.8769 34.6843 11.2378 34.4182 11.5039C34.1522 11.7699 33.7913 11.9194 33.415 11.9194C33.0387 11.9194 32.6778 11.7699 32.4117 11.5039C32.1457 11.2378 31.9962 10.8769 31.9962 10.5006V9.08181H14.9705V10.5006C14.9705 10.8769 14.8211 11.2378 14.555 11.5039C14.2889 11.7699 13.928 11.9194 13.5517 11.9194C13.1755 11.9194 12.8146 11.7699 12.5485 11.5039C12.2824 11.2378 12.1329 10.8769 12.1329 10.5006V9.08181Z" fill="white"/>
<path fill-rule="evenodd" clip-rule="evenodd" d="M20.2924 36.1583C19.9157 36.1579 19.5546 36.0083 19.2879 35.7422L13.2571 29.7132C12.9911 29.4465 12.8418 29.0853 12.8418 28.7087C12.8418 28.3321 12.9911 27.9708 13.2571 27.7042C13.5237 27.4382 13.885 27.2889 14.2616 27.2889C14.6382 27.2889 14.9994 27.4382 15.2661 27.7042L20.2924 32.7324L31.7015 21.3196C31.9682 21.0536 32.3294 20.9043 32.706 20.9043C33.0826 20.9043 33.4439 21.0536 33.7105 21.3196C33.9765 21.5862 34.1258 21.9475 34.1258 22.3241C34.1258 22.7007 33.9765 23.0619 33.7105 23.3286L21.2969 35.7441C21.03 36.0095 20.6689 36.1584 20.2924 36.1583Z" fill="white"/>
</svg>
