<svg width="17" height="18" viewBox="0 0 17 18" fill="none" xmlns="http://www.w3.org/2000/svg">
<path d="M0.253906 8.86081C0.253906 4.3107 3.97672 0.587891 8.52682 0.587891C13.0769 0.587891 16.7997 4.3107 16.7997 8.86081C16.7997 13.4109 13.0769 17.1337 8.52682 17.1337C3.97672 17.1337 0.253906 13.4109 0.253906 8.86081ZM8.57853 7.30964V7.61987L8.26829 7.56816C7.13077 7.41305 6.14836 6.9477 5.32107 6.1204L4.90742 5.70676L4.80401 6.01699C4.59719 6.68917 4.7006 7.41305 5.16595 7.8784C5.42448 8.13693 5.37277 8.18863 4.95913 8.03352C4.80401 7.98181 4.7006 7.9301 4.64889 7.98181C4.59719 8.03352 4.7523 8.60228 4.85572 8.8091C5.01083 9.11934 5.37277 9.42957 5.68301 9.58469L5.99324 9.7398H5.6313C5.26936 9.7398 5.26936 9.7398 5.32107 9.89492C5.47618 10.3086 5.94154 10.7222 6.5103 10.929L6.87224 11.0842L6.56201 11.291C6.04495 11.6012 5.47618 11.7563 4.90742 11.7563C4.64889 11.7563 4.39036 11.808 4.39036 11.808C4.39036 11.8597 5.16595 12.2217 5.5796 12.3768C6.92395 12.7904 8.47512 12.5836 9.66435 11.9114C10.4916 11.3944 11.3189 10.412 11.7326 9.48128C11.9394 8.96422 12.1462 8.03352 12.1462 7.61987C12.1462 7.36134 12.1979 7.30964 12.5082 6.9477C12.715 6.74087 12.9218 6.53405 12.9218 6.43064C12.9735 6.32723 12.9735 6.32723 12.6633 6.43064C12.1462 6.63746 12.0428 6.58576 12.353 6.27552C12.5599 6.0687 12.7667 5.70676 12.7667 5.60335C12.7667 5.60335 12.6633 5.60335 12.5599 5.65505C12.4565 5.70676 12.1979 5.81017 11.9911 5.86188L11.6809 5.96529L11.4223 5.75846C11.2672 5.65505 11.0087 5.49993 10.9053 5.49993C10.5951 5.39652 10.1297 5.39652 9.81947 5.55164C8.99217 5.75846 8.52682 6.53405 8.57853 7.30964Z" fill="#1C1C1C"/>
</svg>
