<svg width="129" height="47" viewBox="0 0 129 47" fill="none" xmlns="http://www.w3.org/2000/svg">
<rect x="0.651367" y="0.805542" width="127.493" height="46.0867" rx="7.84453" fill="black"/>
<path d="M27.0214 31.9616C26.8812 31.9616 26.737 31.9439 26.5949 31.9067L13.6563 28.4414C12.7689 28.1972 12.2403 27.2784 12.4727 26.392L14.1054 20.3066C14.1662 20.083 14.3946 19.9536 14.6172 20.0104C14.8408 20.0693 14.9732 20.2997 14.9134 20.5223L13.2817 26.6057C13.166 27.049 13.4317 27.5108 13.8759 27.6344L26.8096 31.0977C27.2538 31.2154 27.7127 30.9506 27.8284 30.5094L28.4815 28.0874C28.5423 27.8638 28.7717 27.7304 28.9943 27.7912C29.2179 27.852 29.3493 28.0815 29.2904 28.3041L28.6374 30.7231C28.4413 31.4674 27.7627 31.9616 27.0214 31.9616Z" fill="white"/>
<path d="M30.8252 26.9409H17.4375C16.5148 26.9409 15.7637 26.1908 15.7637 25.2681V15.2271C15.7637 14.3034 16.5158 13.5532 17.4375 13.5532H30.8252C31.7489 13.5532 32.499 14.3034 32.499 15.2271V25.2681C32.499 26.1898 31.7489 26.9409 30.8252 26.9409ZM17.4375 14.3896C16.9766 14.3896 16.6011 14.7652 16.6011 15.2271V25.2681C16.6011 25.7289 16.9766 26.1045 17.4375 26.1045H30.8252C31.2861 26.1045 31.6626 25.7289 31.6626 25.2681V15.2271C31.6626 14.7662 31.287 14.3896 30.8252 14.3896H17.4375Z" fill="white"/>
<path d="M19.9478 19.4104C19.025 19.4104 18.2739 18.6603 18.2739 17.7376C18.2739 16.8139 19.025 16.0637 19.9478 16.0637C20.8705 16.0637 21.6216 16.8139 21.6216 17.7376C21.6216 18.6593 20.8705 19.4104 19.9478 19.4104ZM19.9478 16.9001C19.4869 16.9001 19.1113 17.2757 19.1113 17.7376C19.1113 18.1984 19.4869 18.574 19.9478 18.574C20.4086 18.574 20.7842 18.1984 20.7842 17.7376C20.7842 17.2767 20.4086 16.9001 19.9478 16.9001ZM16.2412 26.0459C16.1334 26.0459 16.0265 26.0047 15.9451 25.9243C15.7813 25.7606 15.7813 25.4958 15.9451 25.332L19.8968 21.3804C20.3704 20.9067 21.198 20.9067 21.6716 21.3804L22.8483 22.557L26.1038 18.6495C26.3411 18.3651 26.6892 18.2004 27.0598 18.1974H27.0696C27.4354 18.1974 27.7835 18.3563 28.0227 18.6348L32.399 23.7406C32.549 23.9161 32.5294 24.1799 32.3539 24.3309C32.1784 24.4819 31.9146 24.4623 31.7636 24.2858L27.3873 19.18C27.3059 19.0858 27.1942 19.0339 27.0696 19.0339C26.9824 19.027 26.8294 19.0868 26.748 19.1849L23.1983 23.4445C23.1228 23.5347 23.012 23.5896 22.8944 23.5945C22.7767 23.6033 22.663 23.5553 22.5806 23.4719L21.0803 21.9716C20.9215 21.8148 20.6469 21.8148 20.4881 21.9716L16.5364 25.9233C16.455 26.0047 16.3481 26.0459 16.2412 26.0459Z" fill="white"/>
<path d="M47.2534 29.0042L44.0685 19.4221H45.304L46.8827 24.2543L47.9398 27.851H48.0084L49.0929 24.2543L50.6854 19.4221H51.8797L48.6536 29.0042H47.2534ZM53.8754 20.2595C53.6374 20.2595 53.4636 20.2046 53.3537 20.0947C53.2531 19.9758 53.2027 19.8247 53.2027 19.6417V19.4632C53.2027 19.2802 53.2531 19.1338 53.3537 19.0239C53.4636 18.905 53.6374 18.8455 53.8754 18.8455C54.1133 18.8455 54.2827 18.905 54.3833 19.0239C54.4931 19.1338 54.5481 19.2802 54.5481 19.4632V19.6417C54.5481 19.8247 54.4931 19.9758 54.3833 20.0947C54.2827 20.2046 54.1133 20.2595 53.8754 20.2595ZM53.3263 21.9205H54.4245V29.0042H53.3263V21.9205ZM59.4215 29.1689C58.9364 29.1689 58.4971 29.0819 58.1036 28.9081C57.7192 28.7342 57.3852 28.4871 57.1015 28.1667C56.8269 27.8373 56.6118 27.4483 56.4562 26.9999C56.3098 26.5423 56.2366 26.0298 56.2366 25.4623C56.2366 24.9041 56.3098 24.3961 56.4562 23.9385C56.6118 23.4809 56.8269 23.092 57.1015 22.7717C57.3852 22.4422 57.7192 22.1905 58.1036 22.0166C58.4971 21.8428 58.9364 21.7558 59.4215 21.7558C59.8974 21.7558 60.3229 21.8428 60.6982 22.0166C61.0734 22.1905 61.3937 22.4331 61.6591 22.7442C61.9245 23.0462 62.1259 23.4077 62.2632 23.8287C62.4096 24.2497 62.4828 24.7119 62.4828 25.2152V25.7369H57.3897V26.0664C57.3897 26.3684 57.4355 26.6521 57.527 26.9175C57.6277 27.1738 57.765 27.398 57.9389 27.5902C58.1219 27.7824 58.3415 27.9334 58.5978 28.0432C58.8632 28.153 59.1606 28.2079 59.4901 28.2079C59.9386 28.2079 60.3275 28.1027 60.657 27.8922C60.9956 27.6817 61.2564 27.3797 61.4395 26.9861L62.222 27.549C61.9932 28.034 61.6362 28.4276 61.1512 28.7296C60.6661 29.0225 60.0896 29.1689 59.4215 29.1689ZM59.4215 22.6756C59.1195 22.6756 58.8449 22.7305 58.5978 22.8403C58.3507 22.941 58.1356 23.0874 57.9526 23.2796C57.7787 23.4718 57.6414 23.7006 57.5407 23.966C57.4401 24.2223 57.3897 24.506 57.3897 24.8171V24.9132H61.3022V24.7622C61.3022 24.1307 61.1283 23.6274 60.7805 23.2522C60.4419 22.8678 59.9889 22.6756 59.4215 22.6756ZM63.4842 21.9205H64.555L65.31 24.9819L66.065 28.0844H66.0925L66.9573 24.9819L67.8497 21.9205H68.8243L69.7441 24.9819L70.6227 28.0844H70.6502L71.3777 24.9819L72.1465 21.9205H73.1761L71.2954 29.0042H69.9363L68.9479 25.5996L68.3301 23.4443H68.3027L67.6987 25.5996L66.7102 29.0042H65.3786L63.4842 21.9205ZM78.007 21.9205H79.1053V23.0737H79.1602C79.3432 22.6252 79.6086 22.2958 79.9564 22.0853C80.3133 21.8656 80.7389 21.7558 81.2331 21.7558C81.6724 21.7558 82.0705 21.8428 82.4274 22.0166C82.7844 22.1905 83.0864 22.4376 83.3335 22.7579C83.5897 23.0783 83.7819 23.4672 83.91 23.9248C84.0473 24.3824 84.116 24.8949 84.116 25.4623C84.116 26.0298 84.0473 26.5423 83.91 26.9999C83.7819 27.4575 83.5897 27.8464 83.3335 28.1667C83.0864 28.4871 82.7844 28.7342 82.4274 28.9081C82.0705 29.0819 81.6724 29.1689 81.2331 29.1689C80.2721 29.1689 79.5812 28.7296 79.1602 27.851H79.1053V31.7497H78.007V21.9205ZM80.9311 28.1805C81.5534 28.1805 82.0431 27.9883 82.4 27.6039C82.7569 27.2104 82.9354 26.6979 82.9354 26.0664V24.8583C82.9354 24.2268 82.7569 23.7189 82.4 23.3345C82.0431 22.941 81.5534 22.7442 80.9311 22.7442C80.684 22.7442 80.446 22.7808 80.2172 22.854C79.9976 22.9181 79.8054 23.0096 79.6407 23.1286C79.4759 23.2476 79.3432 23.394 79.2426 23.5679C79.151 23.7326 79.1053 23.9111 79.1053 24.1033V26.739C79.1053 26.9678 79.151 27.1738 79.2426 27.3568C79.3432 27.5307 79.4759 27.6817 79.6407 27.8098C79.8054 27.9288 79.9976 28.0203 80.2172 28.0844C80.446 28.1484 80.684 28.1805 80.9311 28.1805ZM85.9703 18.8455H87.0685V23.0737H87.1235C87.2973 22.671 87.5399 22.3507 87.851 22.1127C88.1714 21.8748 88.5969 21.7558 89.1277 21.7558C89.8599 21.7558 90.4365 21.9938 90.8575 22.4697C91.2876 22.9364 91.5027 23.5999 91.5027 24.4602V29.0042H90.4044V24.6524C90.4044 23.3803 89.869 22.7442 88.7983 22.7442C88.5786 22.7442 88.3635 22.7717 88.153 22.8266C87.9517 22.8815 87.7687 22.9639 87.6039 23.0737C87.4392 23.1835 87.3065 23.3254 87.2058 23.4993C87.1143 23.664 87.0685 23.8608 87.0685 24.0896V29.0042H85.9703V18.8455ZM96.4496 29.1689C95.9737 29.1689 95.539 29.0819 95.1455 28.9081C94.752 28.7342 94.4133 28.4871 94.1296 28.1667C93.8551 27.8373 93.64 27.4483 93.4844 26.9999C93.3288 26.5423 93.251 26.0298 93.251 25.4623C93.251 24.9041 93.3288 24.3961 93.4844 23.9385C93.64 23.4809 93.8551 23.092 94.1296 22.7717C94.4133 22.4422 94.752 22.1905 95.1455 22.0166C95.539 21.8428 95.9737 21.7558 96.4496 21.7558C96.9255 21.7558 97.3557 21.8428 97.7401 22.0166C98.1336 22.1905 98.4722 22.4422 98.7559 22.7717C99.0396 23.092 99.2593 23.4809 99.4149 23.9385C99.5705 24.3961 99.6483 24.9041 99.6483 25.4623C99.6483 26.0298 99.5705 26.5423 99.4149 26.9999C99.2593 27.4483 99.0396 27.8373 98.7559 28.1667C98.4722 28.4871 98.1336 28.7342 97.7401 28.9081C97.3557 29.0819 96.9255 29.1689 96.4496 29.1689ZM96.4496 28.1942C97.0445 28.1942 97.5296 28.0112 97.9048 27.6451C98.28 27.279 98.4677 26.7207 98.4677 25.9703V24.9544C98.4677 24.204 98.28 23.6457 97.9048 23.2796C97.5296 22.9135 97.0445 22.7305 96.4496 22.7305C95.8548 22.7305 95.3697 22.9135 94.9945 23.2796C94.6193 23.6457 94.4316 24.204 94.4316 24.9544V25.9703C94.4316 26.7207 94.6193 27.279 94.9945 27.6451C95.3697 28.0112 95.8548 28.1942 96.4496 28.1942ZM103.019 29.0042C102.635 29.0042 102.342 28.8989 102.141 28.6884C101.949 28.4688 101.853 28.1851 101.853 27.8373V22.8815H100.686V21.9205H101.345C101.583 21.9205 101.743 21.8748 101.825 21.7833C101.917 21.6826 101.962 21.5133 101.962 21.2753V19.9574H102.951V21.9205H104.502V22.8815H102.951V28.0432H104.392V29.0042H103.019ZM108.891 29.1689C108.415 29.1689 107.98 29.0819 107.586 28.9081C107.193 28.7342 106.854 28.4871 106.571 28.1667C106.296 27.8373 106.081 27.4483 105.925 26.9999C105.77 26.5423 105.692 26.0298 105.692 25.4623C105.692 24.9041 105.77 24.3961 105.925 23.9385C106.081 23.4809 106.296 23.092 106.571 22.7717C106.854 22.4422 107.193 22.1905 107.586 22.0166C107.98 21.8428 108.415 21.7558 108.891 21.7558C109.366 21.7558 109.797 21.8428 110.181 22.0166C110.575 22.1905 110.913 22.4422 111.197 22.7717C111.481 23.092 111.7 23.4809 111.856 23.9385C112.011 24.3961 112.089 24.9041 112.089 25.4623C112.089 26.0298 112.011 26.5423 111.856 26.9999C111.7 27.4483 111.481 27.8373 111.197 28.1667C110.913 28.4871 110.575 28.7342 110.181 28.9081C109.797 29.0819 109.366 29.1689 108.891 29.1689ZM108.891 28.1942C109.485 28.1942 109.971 28.0112 110.346 27.6451C110.721 27.279 110.909 26.7207 110.909 25.9703V24.9544C110.909 24.204 110.721 23.6457 110.346 23.2796C109.971 22.9135 109.485 22.7305 108.891 22.7305C108.296 22.7305 107.811 22.9135 107.435 23.2796C107.06 23.6457 106.873 24.204 106.873 24.9544V25.9703C106.873 26.7207 107.06 27.279 107.435 27.6451C107.811 28.0112 108.296 28.1942 108.891 28.1942ZM116.023 29.1689C115.364 29.1689 114.811 29.0453 114.362 28.7982C113.923 28.542 113.543 28.2034 113.223 27.7824L114.005 27.1509C114.28 27.4987 114.586 27.7686 114.925 27.9608C115.264 28.1439 115.657 28.2354 116.106 28.2354C116.572 28.2354 116.934 28.1347 117.19 27.9334C117.455 27.732 117.588 27.4483 117.588 27.0822C117.588 26.8077 117.497 26.5743 117.314 26.3821C117.14 26.1808 116.819 26.0435 116.353 25.9703L115.79 25.8879C115.46 25.8422 115.158 25.7735 114.884 25.682C114.609 25.5813 114.367 25.4532 114.156 25.2976C113.955 25.1329 113.795 24.9315 113.676 24.6936C113.566 24.4556 113.511 24.1719 113.511 23.8425C113.511 23.4947 113.575 23.1927 113.703 22.9364C113.831 22.671 114.005 22.4514 114.225 22.2775C114.454 22.1036 114.724 21.9755 115.035 21.8931C115.346 21.8016 115.68 21.7558 116.037 21.7558C116.614 21.7558 117.094 21.8565 117.478 22.0578C117.872 22.2592 118.215 22.5383 118.508 22.8952L117.78 23.5542C117.625 23.3345 117.396 23.1378 117.094 22.9639C116.792 22.7808 116.412 22.6893 115.955 22.6893C115.497 22.6893 115.149 22.79 114.911 22.9913C114.682 23.1835 114.568 23.4489 114.568 23.7875C114.568 24.1353 114.682 24.387 114.911 24.5426C115.149 24.6982 115.488 24.8126 115.927 24.8858L116.476 24.9681C117.263 25.0871 117.822 25.3159 118.151 25.6545C118.481 25.984 118.645 26.4187 118.645 26.9587C118.645 27.6451 118.412 28.1851 117.945 28.5786C117.478 28.9721 116.838 29.1689 116.023 29.1689Z" fill="white"/>
</svg>
